<svg width="20" height="20" viewBox="0 0 20 20" fill="none" xmlns="http://www.w3.org/2000/svg">
<path d="M4.34346 13.1944C7.21432 11.5743 7.21432 8.4275 4.34346 6.80732C7.21432 7.75779 7.75762 7.21449 6.80593 4.34485C8.42611 7.21571 11.5729 7.21571 13.1931 4.34485C12.2426 7.21571 12.7859 7.75901 15.6567 6.80732C12.7859 8.4275 12.7859 11.5743 15.6567 13.1944C12.7859 12.244 12.2426 12.7873 13.1931 15.6569C11.5729 12.7861 8.42611 12.7861 6.80593 15.6569C7.7564 12.7861 7.2131 12.2428 4.34346 13.1944Z" fill="#9E66FF"/>
<path d="M2.00002 10C6.05957 10 10 6.05956 10 2C10 6.05956 13.9405 10 18 10C13.9405 10 10 13.9404 10 18C10 13.9404 6.05957 10 2.00002 10Z" fill="#9E66FF"/>
</svg>
