<svg width="314" height="318" viewBox="0 0 314 318" fill="none" xmlns="http://www.w3.org/2000/svg">
<path d="M207.199 3.05176e-05C242.623 3.05176e-05 278.205 3.05176e-05 313.47 0.0791016H313.865V0.474457C313.865 48.2329 313.865 96.0705 313.865 143.829C313.865 201.55 313.865 259.193 313.865 316.914V317.309H313.47C261.758 317.23 209.176 317.309 158.334 317.309C106.543 317.309 53.0123 317.388 0.430511 317.309H0.0351562V316.914C-0.0439148 265.676 0.0351562 213.49 0.0351562 163.122C0.0351562 109.829 0.114227 54.7167 0.0351563 0.474457V0.0791016H0.430511C33.7982 0.0791016 67.1659 0.0791016 100.534 0.0791016C135.641 0.0791016 171.381 3.05176e-05 207.199 3.05176e-05ZM313.154 0.869812C242.307 0.790741 170.274 0.790741 100.613 0.869812C67.4031 0.869812 34.1145 0.869812 0.904938 0.869812C0.984009 54.9539 0.904938 109.908 0.904938 163.122C0.904938 213.411 0.825867 265.439 0.904938 316.519C53.4077 316.598 106.78 316.519 158.413 316.519C209.097 316.519 261.6 316.44 313.154 316.519C313.154 258.955 313.154 201.392 313.154 143.829C313.154 96.2287 313.154 48.5492 313.154 0.869812Z" fill="#C4A1FF" fill-opacity="0.1"/>
<path d="M108.915 292.798C125.124 292.798 141.492 293.509 157.781 295.486C190.595 299.598 223.646 298.174 255.67 296.751C274.567 295.96 294.177 295.091 313.549 295.407V296.198C294.177 295.881 274.567 296.751 255.67 297.542C223.646 298.886 190.516 300.309 157.701 296.277C125.045 292.165 91.994 293.588 60.0495 294.932C40.5982 295.723 20.4353 296.593 0.430511 296.198V295.407C20.3562 295.802 40.5192 294.932 59.9705 294.142C76.1008 293.509 92.4684 292.798 108.915 292.798Z" fill="#C4A1FF" fill-opacity="0.1"/>
<path d="M108.915 263.067C125.599 263.067 141.018 266.625 159.599 274.453C182.609 284.179 201.585 287.184 224.99 284.732C236.218 283.546 247.525 281.886 258.516 280.225C276.465 277.458 294.968 274.69 313.549 274.295V275.086C295.047 275.402 276.544 278.249 258.595 281.016C247.604 282.677 236.297 284.416 225.069 285.602C201.506 287.974 182.45 284.97 159.283 275.244C136.906 265.755 119.194 262.672 98.2405 264.411C84.9567 265.518 71.5938 267.495 58.7054 269.393C39.7285 272.16 20.119 275.007 0.509583 275.244V274.453C20.119 274.216 39.6494 271.369 58.6263 268.602C71.5938 266.704 84.9567 264.728 98.2405 263.621C101.799 263.225 105.357 263.067 108.915 263.067Z" fill="#C4A1FF" fill-opacity="0.1"/>
<path d="M117.534 232.546C135.878 232.546 147.897 240.216 161.813 253.341C181.66 272.002 196.051 276.588 221.274 272.081C233.135 269.946 244.995 266.942 256.46 264.016C274.884 259.351 293.94 254.527 313.47 253.262L313.549 254.053C294.019 255.318 275.042 260.141 256.697 264.807C245.232 267.732 233.372 270.737 221.511 272.872C195.971 277.458 181.343 272.872 161.339 253.974C144.418 238.002 131.213 230.569 105.91 234.285C91.3614 236.42 76.8125 239.899 62.7379 243.22C42.575 247.965 21.7795 252.946 0.509583 254.132L0.430511 253.341C21.6214 252.155 42.4169 247.253 62.5007 242.509C76.5753 239.188 91.1242 235.709 105.673 233.574C109.943 232.862 113.896 232.546 117.534 232.546Z" fill="#C4A1FF" fill-opacity="0.1"/>
<path d="M125.124 203.843C143.469 203.843 152.878 213.727 163.79 232.23C177.469 255.397 188.618 264.569 218.427 257.611C230.841 254.686 243.018 250.653 254.879 246.7C273.698 240.453 293.07 233.969 313.549 232.151L313.628 232.941C293.228 234.76 273.856 241.244 255.116 247.49C243.255 251.444 231.079 255.476 218.585 258.402C203.957 261.802 193.757 261.486 185.376 257.216C177.548 253.262 171.143 246.146 163.157 232.625C149.873 210.09 139.357 200.918 112.394 205.978C96.7381 208.904 81.2403 213.648 66.296 218.155C45.1051 224.56 23.2817 231.202 0.50946 233.02L0.430389 232.23C23.0445 230.49 44.8679 223.848 65.9797 217.444C80.924 212.857 96.4218 208.192 112.157 205.267C116.98 204.239 121.25 203.843 125.124 203.843Z" fill="#C4A1FF" fill-opacity="0.1"/>
<path d="M129.473 175.694C150.032 175.694 157.306 189.848 165.134 210.248C165.767 211.829 166.32 213.411 166.953 215.071C170.274 224.244 174.148 234.602 181.976 240.532C192.255 248.281 205.539 244.644 217.241 241.481L217.479 241.402C230.13 238.002 242.386 233.099 254.325 228.355C273.144 220.843 292.595 213.095 313.549 211.118L313.628 211.909C292.753 213.885 273.381 221.634 254.642 229.146C242.702 233.89 230.446 238.792 217.716 242.272L217.479 242.351C205.618 245.593 192.097 249.23 181.501 241.323C173.436 235.234 169.562 224.797 166.162 215.467C165.529 213.806 164.976 212.225 164.343 210.722C155.013 186.685 146.631 171.425 115.715 178.383C99.4265 182.02 83.4543 187.95 67.9565 193.564C46.3703 201.471 23.9934 209.695 0.430389 211.988L0.351318 211.197C23.8352 208.904 46.1331 200.76 67.6402 192.853C83.138 187.16 99.1102 181.308 115.478 177.592C120.775 176.248 125.362 175.694 129.473 175.694Z" fill="#C4A1FF" fill-opacity="0.1"/>
<path d="M121.487 158.378C141.492 158.378 150.901 171.583 162.683 191.825C176.836 216.099 188.539 231.281 220.325 222.03C232.739 218.392 244.6 213.174 256.144 208.113C274.172 200.206 292.833 191.983 313.47 190.006L313.549 190.797C292.991 192.774 274.409 200.918 256.46 208.825C244.916 213.885 232.976 219.183 220.562 222.82C188.223 232.309 176.362 216.89 161.971 192.299C148.055 168.42 137.459 154.424 108.52 160.829C93.2591 164.229 78.3148 169.29 63.8449 174.271C43.5238 181.229 22.4911 188.425 0.430481 190.797L0.35141 190.006C22.333 187.634 43.2866 180.439 63.6077 173.48C78.0776 168.499 93.0219 163.359 108.362 160.038C113.264 158.931 117.534 158.378 121.487 158.378Z" fill="#C4A1FF" fill-opacity="0.1"/>
<path d="M105.752 146.122C128.841 146.122 143.153 160.829 158.255 176.248C179.446 197.913 196.683 212.462 226.335 202.815C238.116 198.941 249.186 193.406 259.939 187.95C276.623 179.569 293.782 170.871 313.628 168.894L313.707 169.685C294.019 171.662 276.94 180.28 260.335 188.662C249.581 194.118 238.511 199.732 226.651 203.606C196.604 213.411 179.13 198.704 157.781 176.801C137.618 156.164 122.278 142.959 94.9196 147.941C81.7939 150.313 68.9055 154.029 56.4124 157.666C38.4634 162.806 19.8819 168.183 0.588684 169.606L0.509613 168.815C19.7237 167.313 38.2262 162.015 56.1751 156.876C68.6683 153.238 81.6358 149.522 94.7615 147.15C98.5568 146.438 102.273 146.122 105.752 146.122Z" fill="#C4A1FF" fill-opacity="0.1"/>
<path d="M86.7753 135.448C111.524 135.448 130.976 148.415 151.376 162.094L152.878 163.122C154.222 164.071 155.646 164.941 156.99 165.89C180.157 181.467 204.037 197.597 232.66 186.211C243.809 181.783 253.93 175.457 263.735 169.369C278.758 160.038 294.335 150.392 313.391 147.783L313.47 148.573C294.651 151.183 279.786 160.355 264.13 170.08C254.246 176.169 244.125 182.494 232.897 186.922C203.958 198.388 179.841 182.178 156.515 166.522C155.171 165.573 153.748 164.704 152.404 163.755L150.822 162.727C128.366 147.703 107.255 133.55 78.9473 136.634C67.7984 137.82 56.7286 140.034 46.0541 142.169C31.2679 145.094 15.9283 148.178 0.272308 148.573V147.783C15.8492 147.387 31.1098 144.383 45.8959 141.378C56.6495 139.243 67.7193 137.029 78.8683 135.843C81.7148 135.527 84.245 135.448 86.7753 135.448Z" fill="#C4A1FF" fill-opacity="0.1"/>
<path d="M68.7472 122.954C96.0264 122.954 119.431 133.945 144.18 145.489L148.529 147.545C151.929 149.127 155.408 150.787 159.046 152.606C184.032 164.783 212.418 178.62 238.669 166.997C249.186 162.331 258.437 155.69 267.451 149.206C281.051 139.401 295.205 129.28 313.549 126.671L313.628 127.461C295.442 130.071 282.079 139.717 267.846 149.917C258.832 156.401 249.581 163.043 238.986 167.787C212.418 179.569 183.874 165.652 158.65 153.396C155.013 151.657 151.613 149.917 148.134 148.336L143.785 146.28C118.087 134.261 93.8125 122.875 65.2681 123.824C56.3331 124.14 47.3191 124.852 38.5423 125.564C26.0492 126.592 13.2398 127.62 0.351318 127.461V126.671C13.1607 126.908 26.0492 125.801 38.4633 124.773C47.2401 124.061 56.2541 123.35 65.189 123.033C66.4541 123.033 67.5611 122.954 68.7472 122.954Z" fill="#C4A1FF" fill-opacity="0.1"/>
<path d="M41.389 105.559C47.003 105.559 52.617 105.559 58.231 105.559C86.3009 105.638 112.315 115.838 137.459 125.722C140.385 126.829 143.232 128.015 146.157 129.122C150.901 130.94 155.804 133.075 161.102 135.368C187.274 146.596 217.004 159.327 241.595 147.624C251.953 142.722 260.651 135.764 269.191 128.964C282.554 118.289 295.205 108.168 313.628 105.559L313.707 106.35C295.6 108.959 283.028 119.001 269.665 129.596C261.125 136.396 252.349 143.434 241.911 148.336C216.925 160.197 185.771 146.834 160.706 136.08C155.488 133.866 150.506 131.731 145.762 129.913C142.836 128.806 139.99 127.62 137.064 126.513C110.813 116.154 86.0637 106.429 58.1519 106.35C46.4495 106.35 34.7471 106.35 22.9656 106.35C15.4539 106.35 7.94223 106.35 0.430542 106.35V105.559C7.94223 105.559 15.4539 105.559 22.9656 105.559C29.1331 105.559 35.2215 105.559 41.389 105.559Z" fill="#C4A1FF" fill-opacity="0.1"/>
<path d="M62.8961 83.7356C89.6218 83.7356 114.924 92.2752 139.357 100.578C141.966 101.447 144.497 102.317 147.106 103.187C151.771 104.768 156.594 106.508 161.734 108.406C186.799 117.578 215.186 128.015 239.776 118.606C250.056 114.652 259.307 109.038 268.163 103.582C282.395 94.8845 295.837 86.5821 313.391 84.5263L313.47 85.317C296.074 87.3728 282.712 95.5961 268.558 104.294C259.623 109.75 250.372 115.443 240.014 119.396C215.186 128.885 186.562 118.447 161.418 109.196C156.357 107.299 151.534 105.559 146.79 103.978C144.18 103.108 141.65 102.238 139.041 101.368C114.292 92.9868 88.673 84.2891 61.6309 84.5263C51.7471 84.6053 41.7052 84.7635 31.9796 84.9216C21.6213 85.0798 10.8678 85.2379 0.35141 85.317V84.5263C10.8678 84.4472 21.6213 84.2891 31.9796 84.1309C41.7052 83.9728 51.7471 83.8937 61.6309 83.7356C62.1054 83.7356 62.5007 83.7356 62.8961 83.7356Z" fill="#C4A1FF" fill-opacity="0.1"/>
<path d="M70.724 62.6238C97.2126 62.6238 121.566 69.2657 147.343 76.3029L149.873 77.0146C154.064 78.1216 158.255 79.3867 162.683 80.6518C187.274 87.8472 212.734 95.2008 236.93 88.4798C247.13 85.6332 256.856 81.5216 266.265 77.489C281.051 71.2424 296.233 64.7587 313.47 63.3354L313.549 64.1261C296.47 65.5494 281.921 71.7169 266.581 78.2006C257.172 82.2332 247.446 86.3449 237.167 89.1914C212.734 95.9914 187.195 88.5588 162.446 81.3634C158.018 80.0983 153.827 78.8332 149.715 77.7262L147.185 77.0146C121.013 69.8982 96.2638 63.1772 69.3799 63.3354C58.1519 63.4145 46.8448 63.5726 35.6168 63.6517C23.9144 63.8098 12.212 63.8889 0.509583 64.047V63.2563C12.212 63.1772 23.9144 63.0191 35.6168 62.861C46.8448 62.7028 58.1519 62.6238 69.3799 62.5447C69.7752 62.6238 70.2496 62.6238 70.724 62.6238Z" fill="#C4A1FF" fill-opacity="0.1"/>
<path d="M44.0773 42.0654C80.845 42.0654 116.506 43.1724 153.194 49.5771C155.725 50.0515 158.255 50.4469 160.864 50.9213C184.743 55.1911 209.413 59.619 233.688 56.0609C244.046 54.5585 254.246 52.1864 264.209 49.9724C280.102 46.3352 296.549 42.6189 313.549 42.3026V43.0933C296.628 43.4096 280.181 47.1259 264.367 50.7632C254.484 53.0562 244.204 55.3492 233.846 56.8516C209.413 60.4097 184.664 55.9818 160.706 51.712C158.176 51.2376 155.567 50.7632 153.036 50.3678C107.017 42.3026 62.5798 42.698 15.5329 43.0143C10.5515 43.0143 5.491 43.0933 0.509583 43.0933V42.3026C5.57007 42.3026 10.5515 42.2236 15.5329 42.2236C25.1005 42.0654 34.668 42.0654 44.0773 42.0654Z" fill="#C4A1FF" fill-opacity="0.1"/>
<path d="M70.1706 20.7956C98.6359 20.7956 127.417 21.27 155.804 23.1677C182.371 24.9863 206.409 26.4095 230.841 25.4607C241.437 25.0653 252.19 24.1956 262.549 23.4049C279.233 22.1397 296.391 20.7956 313.549 21.1909V21.9816C296.47 21.5863 279.312 22.9304 262.628 24.1956C252.27 24.9863 241.516 25.8561 230.921 26.2514C206.488 27.2002 182.45 25.777 155.804 23.9584C114.45 21.1909 72.3055 21.5072 31.5052 21.7444C21.3051 21.8235 10.7887 21.9025 0.430511 21.9025V21.1118C10.7887 21.1118 21.3051 21.0328 31.5052 20.9537C44.3145 20.8746 57.203 20.7956 70.1706 20.7956Z" fill="#C4A1FF" fill-opacity="0.1"/>
<path d="M21.7795 0.474457C22.0958 20.5583 21.3051 40.8794 20.5144 60.4889C19.2493 91.9588 17.9842 124.536 21.4632 156.797C25.1005 190.164 23.9144 223.927 22.8074 256.583C22.0958 276.351 21.3842 296.751 21.7795 316.914H20.9888C20.6725 296.751 21.3842 276.272 22.0167 256.504C23.2028 223.848 24.3889 190.164 20.7516 156.797C17.1935 124.457 18.5376 91.8798 19.8028 60.3307C20.5935 40.7213 21.3842 20.4792 21.0679 0.395386L21.7795 0.474457Z" fill="#C4A1FF" fill-opacity="0.1"/>
<path d="M41.7842 0.474487H42.5749C42.3377 18.2653 39.4121 35.9771 36.6447 53.0562C35.0632 62.861 33.4028 72.982 32.2958 83.0239C29.6865 106.271 32.4539 126.987 41.4679 152.448C50.0866 176.485 53.0122 196.49 51.2727 219.341C50.3238 231.834 48.8215 244.406 47.3982 256.583C45.0261 276.351 42.654 296.751 42.4959 317.072H41.7052C41.8633 296.751 44.2354 276.272 46.6075 256.504C48.0308 244.327 49.5331 231.755 50.482 219.262C52.2215 196.569 49.2959 176.722 40.6772 152.764C31.5842 127.224 28.8167 106.35 31.426 83.0239C32.533 72.982 34.1935 62.861 35.7749 53.0562C38.7005 35.8189 41.547 18.2653 41.7842 0.474487Z" fill="#C4A1FF" fill-opacity="0.1"/>
<path d="M62.6589 0.474487L63.4496 0.553558C62.3427 18.7397 57.4403 36.0562 52.6961 52.8981C49.9286 62.6238 47.0821 72.7448 45.0262 82.9449C39.4122 110.461 46.5286 126.75 61.7101 147.15C78.3149 169.527 82.8219 185.578 79.58 210.564C77.7614 224.402 75.1521 238.318 72.5427 251.76C68.5101 273.03 64.3194 295.012 63.3706 317.072H62.5799C63.5287 294.932 67.7194 272.951 71.752 251.681C74.2823 238.239 76.9707 224.323 78.7893 210.564C82.0312 185.736 77.5242 169.922 61.0775 147.703C45.7379 127.066 38.5425 110.699 44.2355 82.8658C46.2914 72.6657 49.1379 62.5447 51.9054 52.8191C56.7287 35.8189 61.552 18.5025 62.6589 0.474487Z" fill="#C4A1FF" fill-opacity="0.1"/>
<path d="M83.5334 0.474426L84.3241 0.553497C82.6636 19.135 76.0217 36.2142 69.617 52.7399C65.8216 62.4656 61.9472 72.4284 59.1007 82.7076C51.1936 111.015 60.5239 125.089 81.8729 142.564C102.51 159.406 111.366 172.769 106.385 203.053C103.934 217.997 100.296 233.02 96.8172 247.49C91.3613 270.025 85.7474 293.351 84.3241 316.993L83.5334 316.914C84.9567 293.193 90.5706 269.867 96.0265 247.253C99.5056 232.783 103.143 217.839 105.594 202.895C110.575 173.006 101.72 159.801 81.3985 143.117C59.8123 125.406 50.3238 111.173 58.389 82.4704C61.3146 72.1122 65.1891 62.0702 68.9054 52.4236C75.3101 35.977 81.8729 18.8978 83.5334 0.474426Z" fill="#C4A1FF" fill-opacity="0.1"/>
<path d="M104.408 0.474426L105.199 0.553497C103.301 19.6095 95.3149 36.4514 87.6451 52.6609C83.059 62.2284 78.3148 72.1912 74.8357 82.5495C64.952 111.964 76.5753 125.089 102.906 140.271C104.013 140.903 105.12 141.536 106.306 142.169C114.213 146.676 122.436 151.262 128.366 158.299C138.645 170.476 135.72 185.025 132.952 199.178C129.869 214.834 125.283 230.411 120.855 245.434C114.134 268.523 107.096 292.402 105.199 316.993L104.408 316.914C106.306 292.323 113.343 268.365 120.064 245.197C124.492 230.174 128.999 214.597 132.083 198.941C134.85 185.025 137.776 170.555 127.734 158.694C121.883 151.736 113.738 147.15 105.91 142.722C104.803 142.089 103.617 141.457 102.51 140.824C75.7846 125.406 64.0031 112.122 74.045 82.2332C77.5241 71.7959 82.2683 61.833 86.8544 52.1864C94.6033 36.1352 102.51 19.3723 104.408 0.474426Z" fill="#C4A1FF" fill-opacity="0.1"/>
<path d="M125.283 0.474426L126.073 0.553497C124.65 19.7676 118.878 37.9538 113.264 55.5865C109.943 66.1028 106.464 77.0145 103.934 88.0053C97.8452 114.652 103.538 129.754 126.39 147.862C148.925 165.731 154.46 180.043 149.32 206.69C146.632 220.764 143.073 234.839 139.673 248.439C134.059 270.658 128.287 293.667 126.152 316.993L125.362 316.914C127.576 293.509 133.348 270.5 138.962 248.281C142.362 234.681 145.92 220.606 148.608 206.611C153.669 180.28 148.134 166.127 125.915 148.494C102.748 130.15 97.0545 114.81 103.222 87.8472C105.752 76.7773 109.231 65.8656 112.552 55.3492C118.087 37.7166 123.859 19.5304 125.283 0.474426Z" fill="#C4A1FF" fill-opacity="0.1"/>
<path d="M146.157 0.474487L146.948 0.553558C145.92 20.7956 142.204 40.9585 138.566 60.4098C136.352 72.2704 134.059 84.6053 132.478 96.7822C128.841 123.745 132.32 140.824 145.841 161.857C158.808 182.02 162.683 198.704 159.678 221.16C158.255 231.597 156.594 242.193 154.934 252.472C151.534 273.583 148.055 295.328 146.948 317.072L146.157 316.993C147.264 295.249 150.743 273.425 154.143 252.314C155.804 242.113 157.464 231.518 158.887 221.002C161.892 198.467 158.176 182.494 145.129 162.252C131.529 141.062 127.971 123.903 131.608 96.7031C133.269 84.4472 135.562 72.1913 137.697 60.2517C141.413 40.7213 145.129 20.6374 146.157 0.474487Z" fill="#C4A1FF" fill-opacity="0.1"/>
<path d="M167.032 0.474457H167.822C167.585 20.5583 166.32 40.9585 165.134 60.7261C162.762 99.1543 160.311 138.927 165.529 177.908C169.72 208.746 168.929 240.453 168.297 271.053C167.981 286.077 167.585 301.653 167.822 316.914H167.032C166.794 301.653 167.19 286.077 167.506 271.053C168.218 240.453 168.929 208.825 164.739 177.987C159.52 139.006 161.971 99.1543 164.343 60.647C165.529 40.9585 166.794 20.5583 167.032 0.474457Z" fill="#C4A1FF" fill-opacity="0.1"/>
<path d="M188.697 0.474426C188.855 18.028 189.725 36.2142 190.595 53.7678C192.809 99.6286 195.102 146.992 184.981 191.904C180.078 213.806 177.153 232.388 178.971 251.997C179.92 262.355 181.818 272.635 183.716 282.677C185.771 293.825 187.906 305.37 188.697 316.914L187.906 316.993C187.116 305.449 184.981 293.904 182.925 282.835C181.106 272.793 179.209 262.514 178.181 252.155C176.362 232.467 179.288 213.806 184.19 191.825C194.232 146.992 191.939 99.7077 189.725 53.8469C188.855 36.2933 187.985 18.1071 187.827 0.553497L188.697 0.474426Z" fill="#C4A1FF" fill-opacity="0.1"/>
<path d="M209.572 0.474426C210.362 26.5676 213.288 52.8981 216.055 78.3587C217.558 92.3542 219.139 106.745 220.404 120.978C222.855 149.522 221.669 171.504 208.306 199.574C199.688 217.76 192.097 237.606 195.339 259.509C196.683 268.365 199.451 276.667 202.139 284.653C205.539 294.774 209.018 305.212 209.572 316.914L208.781 316.993C208.227 305.449 204.748 295.011 201.348 284.97C198.66 276.904 195.892 268.602 194.548 259.667C191.306 237.527 198.897 217.602 207.595 199.257C220.879 171.345 222.065 149.443 219.614 121.057C218.427 106.824 216.846 92.4332 215.265 78.4378C212.497 52.9771 209.572 26.5676 208.781 0.474426H209.572Z" fill="#C4A1FF" fill-opacity="0.1"/>
<path d="M230.446 0.474457C231.237 19.1351 233.609 38.5073 235.981 57.1679C241.753 103.266 247.604 150.866 230.683 194.908C222.302 216.653 217.162 235.392 219.376 255.872C220.404 265.123 222.539 274.137 224.674 282.835C227.283 293.746 230.051 305.053 230.446 316.914H229.655C229.26 305.133 226.493 293.905 223.883 282.993C221.748 274.295 219.613 265.202 218.586 255.951C216.372 235.313 221.511 216.495 229.972 194.592C246.814 150.708 240.962 103.187 235.19 57.247C232.897 38.5073 230.446 19.1351 229.655 0.474457H230.446Z" fill="#C4A1FF" fill-opacity="0.1"/>
<path d="M251.321 0.474457C251.953 18.3444 253.614 36.4515 255.195 53.926C259.149 96.8612 263.26 141.299 251.716 184.629C246.418 204.476 241.753 225.904 243.256 248.597C243.967 258.876 245.549 269.156 247.13 279.039C249.028 291.374 251.004 304.026 251.321 316.914H250.53C250.214 304.105 248.237 291.453 246.339 279.197C244.758 269.235 243.176 258.955 242.465 248.676C240.883 225.904 245.628 204.318 250.925 184.471C262.47 141.299 258.358 96.9403 254.404 54.0842C252.823 36.5305 251.083 18.4234 250.53 0.553528L251.321 0.474457Z" fill="#C4A1FF" fill-opacity="0.1"/>
<path d="M272.195 0.474426C272.432 18.028 273.381 35.6607 274.251 52.819C276.307 92.0379 278.363 132.601 272.591 172.848C267.846 205.978 269.27 237.211 270.772 270.262C271.484 285.444 272.195 301.179 272.195 316.993H271.405C271.325 301.258 270.614 285.523 269.981 270.342C268.479 237.211 267.056 205.978 271.8 172.769C277.572 132.68 275.516 92.117 273.46 52.8981C272.591 35.7398 271.642 18.1071 271.405 0.553497L272.195 0.474426Z" fill="#C4A1FF" fill-opacity="0.1"/>
<path d="M292.279 0.474457H293.07C293.07 38.9817 293.149 78.1216 293.228 115.996C293.386 181.862 293.623 249.941 293.07 316.914H292.279C292.833 249.941 292.675 181.862 292.437 115.996C292.358 78.1216 292.2 38.9817 292.279 0.474457Z" fill="#C4A1FF" fill-opacity="0.1"/>
</svg>
