<svg width="312" height="316" viewBox="0 0 312 316" fill="none" xmlns="http://www.w3.org/2000/svg">
<g clip-path="url(#clip0_2088_91)">
<g clip-path="url(#clip1_2088_91)">
<path d="M107.915 291.798C124.124 291.798 140.492 292.509 156.78 294.486C189.594 298.598 222.646 297.174 254.669 295.751C273.567 294.96 293.177 294.091 312.549 294.407V295.198C293.177 294.881 273.567 295.751 254.669 296.542C222.646 297.886 189.515 299.309 156.701 295.277C124.045 291.165 90.9936 292.588 59.0492 293.932C39.5979 294.723 19.435 295.593 -0.569824 295.198V294.407C19.3559 294.802 39.5188 293.932 58.9701 293.142C75.1005 292.509 91.4681 291.798 107.915 291.798Z" fill="#DAF5F0" fill-opacity="0.3"/>
<path d="M107.915 262.067C124.599 262.067 140.017 265.625 158.599 273.453C181.608 283.179 200.585 286.184 223.99 283.732C235.218 282.546 246.525 280.886 257.516 279.225C275.465 276.458 293.967 273.69 312.549 273.295V274.086C294.046 274.402 275.544 277.249 257.595 280.016C246.604 281.677 235.297 283.416 224.069 284.602C200.506 286.974 181.45 283.97 158.283 274.244C135.906 264.755 118.194 261.672 97.2402 263.411C83.9564 264.518 70.5935 266.495 57.705 268.393C38.7281 271.16 19.1187 274.007 -0.490723 274.244V273.453C19.1187 273.216 38.649 270.369 57.6259 267.602C70.5935 265.704 83.9564 263.728 97.2402 262.621C100.798 262.225 104.357 262.067 107.915 262.067Z" fill="#DAF5F0" fill-opacity="0.3"/>
<path d="M116.533 231.546C134.878 231.546 146.896 239.216 160.813 252.341C180.66 271.002 195.05 275.588 220.274 271.081C232.134 268.946 243.995 265.942 255.46 263.016C273.883 258.351 292.939 253.527 312.47 252.262L312.549 253.053C293.018 254.318 274.042 259.141 255.697 263.807C244.232 266.732 232.372 269.737 220.511 271.872C194.971 276.458 180.343 271.872 160.338 252.974C143.417 237.002 130.213 229.569 104.91 233.285C90.3611 235.42 75.8121 238.899 61.7376 242.22C41.5747 246.965 20.7792 251.946 -0.490753 253.132L-0.569824 252.341C20.621 251.155 41.4165 246.253 61.5004 241.509C75.5749 238.188 90.1239 234.709 104.673 232.574C108.943 231.862 112.896 231.546 116.533 231.546Z" fill="#DAF5F0" fill-opacity="0.3"/>
<path d="M124.124 202.843C142.469 202.843 151.878 212.727 162.79 231.23C176.469 254.397 187.618 263.569 217.427 256.611C229.841 253.686 242.018 249.653 253.879 245.7C272.697 239.453 292.07 232.969 312.549 231.151L312.628 231.941C292.228 233.76 272.856 240.244 254.116 246.49C242.255 250.444 230.078 254.476 217.585 257.402C202.957 260.802 192.757 260.486 184.376 256.216C176.548 252.262 170.143 245.146 162.157 231.625C148.873 209.09 138.357 199.918 111.394 204.978C95.7379 207.904 80.2401 212.648 65.2958 217.155C44.1049 223.56 22.2815 230.202 -0.490753 232.02L-0.569824 231.23C22.0443 229.49 43.8677 222.848 64.9795 216.444C79.9238 211.857 95.4216 207.192 111.157 204.267C115.98 203.239 120.25 202.843 124.124 202.843Z" fill="#DAF5F0" fill-opacity="0.3"/>
<path d="M128.473 174.694C149.031 174.694 156.306 188.848 164.134 209.248C164.766 210.829 165.32 212.411 165.952 214.071C169.273 223.244 173.148 233.602 180.976 239.532C191.255 247.281 204.539 243.644 216.241 240.481L216.478 240.402C229.13 237.002 241.386 232.099 253.325 227.355C272.144 219.843 291.595 212.095 312.549 210.118L312.628 210.909C291.753 212.885 272.381 220.634 253.641 228.146C241.702 232.89 229.446 237.792 216.716 241.272L216.478 241.351C204.618 244.593 191.097 248.23 180.501 240.323C172.436 234.234 168.562 223.797 165.162 214.467C164.529 212.806 163.976 211.225 163.343 209.722C154.013 185.685 145.631 170.425 114.715 177.383C98.4262 181.02 82.454 186.95 66.9562 192.564C45.37 200.471 22.9932 208.695 -0.569855 210.988L-0.648926 210.197C22.835 207.904 45.1328 199.76 66.64 191.853C82.1378 186.16 98.11 180.308 114.478 176.592C119.775 175.248 124.361 174.694 128.473 174.694Z" fill="#DAF5F0" fill-opacity="0.3"/>
<path d="M120.487 157.378C140.492 157.378 149.901 170.583 161.683 190.825C175.836 215.099 187.539 230.281 219.325 221.03C231.739 217.392 243.599 212.174 255.144 207.113C273.172 199.206 291.832 190.983 312.47 189.006L312.549 189.797C291.991 191.774 273.409 199.918 255.46 207.825C243.916 212.885 231.976 218.183 219.562 221.82C187.222 231.309 175.362 215.89 160.971 191.299C147.055 167.42 136.459 153.424 107.519 159.829C92.2588 163.229 77.3145 168.29 62.8446 173.271C42.5235 180.229 21.4908 187.425 -0.569855 189.797L-0.648926 189.006C21.3326 186.634 42.2863 179.439 62.6074 172.48C77.0772 167.499 92.0215 162.359 107.361 159.038C112.264 157.931 116.533 157.378 120.487 157.378Z" fill="#DAF5F0" fill-opacity="0.3"/>
<path d="M104.752 145.122C127.841 145.122 142.152 159.829 157.255 175.248C178.446 196.913 195.683 211.462 225.334 201.815C237.116 197.941 248.186 192.406 258.939 186.95C275.623 178.569 292.781 169.871 312.628 167.894L312.707 168.685C293.019 170.662 275.939 179.28 259.335 187.662C248.581 193.118 237.511 198.732 225.651 202.606C195.604 212.411 178.129 197.704 156.78 175.801C136.617 155.164 121.278 141.959 93.9193 146.941C80.7936 149.313 67.9051 153.029 55.412 156.666C37.463 161.806 18.8815 167.183 -0.411652 168.606L-0.490723 167.815C18.7234 166.313 37.2258 161.015 55.1748 155.876C67.6679 152.238 80.6354 148.522 93.7611 146.15C97.5565 145.438 101.273 145.122 104.752 145.122Z" fill="#DAF5F0" fill-opacity="0.3"/>
<path d="M85.7755 134.448C110.524 134.448 129.976 147.415 150.376 161.094L151.878 162.122C153.222 163.071 154.646 163.941 155.99 164.89C179.157 180.467 203.037 196.597 231.66 185.211C242.809 180.783 252.93 174.457 262.735 168.369C277.758 159.038 293.335 149.392 312.391 146.783L312.47 147.573C293.651 150.183 278.786 159.355 263.13 169.08C253.246 175.169 243.125 181.494 231.897 185.922C202.958 197.388 178.841 181.178 155.515 165.522C154.171 164.573 152.748 163.704 151.404 162.755L149.822 161.727C127.366 146.703 106.255 132.55 77.9475 135.634C66.7986 136.82 55.7288 139.034 45.0543 141.169C30.2681 144.094 14.9285 147.178 -0.727539 147.573V146.783C14.8494 146.387 30.11 143.383 44.8961 140.378C55.6497 138.243 66.7195 136.029 77.8685 134.843C80.715 134.527 83.2452 134.448 85.7755 134.448Z" fill="#DAF5F0" fill-opacity="0.3"/>
<path d="M67.747 121.954C95.0262 121.954 118.431 132.945 143.18 144.489L147.529 146.545C150.929 148.127 154.408 149.787 158.045 151.606C183.032 163.783 211.418 177.62 237.669 165.997C248.186 161.331 257.437 154.69 266.451 148.206C280.051 138.401 294.205 128.28 312.549 125.671L312.628 126.461C294.442 129.071 281.079 138.717 266.846 148.917C257.832 155.401 248.581 162.043 237.986 166.787C211.418 178.569 182.873 164.652 157.65 152.396C154.013 150.657 150.613 148.917 147.134 147.336L142.785 145.28C117.087 133.261 92.8123 121.875 64.2679 122.824C55.3329 123.14 46.3189 123.852 37.5421 124.564C25.049 125.592 12.2396 126.62 -0.648926 126.461V125.671C12.1605 125.908 25.049 124.801 37.463 123.773C46.2398 123.061 55.2538 122.35 64.1888 122.033C65.4539 122.033 66.5609 121.954 67.747 121.954Z" fill="#DAF5F0" fill-opacity="0.3"/>
<path d="M40.3886 104.559C46.0026 104.559 51.6166 104.559 57.2306 104.559C85.3006 104.638 111.315 114.838 136.459 124.722C139.385 125.829 142.231 127.015 145.157 128.122C149.901 129.94 154.804 132.075 160.101 134.368C186.274 145.596 216.004 158.327 240.595 146.624C250.953 141.722 259.651 134.764 268.19 127.964C281.553 117.289 294.205 107.168 312.628 104.559L312.707 105.35C294.6 107.959 282.028 118.001 268.665 128.596C260.125 135.396 251.348 142.434 240.911 147.336C215.925 159.197 184.771 145.834 159.706 135.08C154.487 132.866 149.506 130.731 144.762 128.913C141.836 127.806 138.989 126.62 136.064 125.513C109.813 115.154 85.0634 105.429 57.1516 105.35C45.4491 105.35 33.7467 105.35 21.9653 105.35C14.4536 105.35 6.94187 105.35 -0.569824 105.35V104.559C6.94187 104.559 14.4536 104.559 21.9653 104.559C28.1327 104.559 34.2212 104.559 40.3886 104.559Z" fill="#DAF5F0" fill-opacity="0.3"/>
<path d="M61.8963 82.7356C88.622 82.7356 113.924 91.2752 138.357 99.578C140.966 100.447 143.497 101.317 146.106 102.187C150.771 103.768 155.594 105.508 160.734 107.406C185.799 116.578 214.186 127.015 238.776 117.606C249.056 113.652 258.307 108.038 267.163 102.582C281.395 93.8845 294.837 85.5821 312.391 83.5263L312.47 84.317C295.074 86.3728 281.712 94.5961 267.558 103.294C258.623 108.75 249.372 114.443 239.014 118.396C214.186 127.885 185.562 117.447 160.418 108.196C155.357 106.299 150.534 104.559 145.79 102.978C143.18 102.108 140.65 101.238 138.041 100.368C113.292 91.9868 87.6732 83.2891 60.6311 83.5263C50.7473 83.6053 40.7054 83.7635 30.9798 83.9216C20.6215 84.0798 9.86795 84.2379 -0.648438 84.317V83.5263C9.86795 83.4472 20.6215 83.2891 30.9798 83.1309C40.7054 82.9728 50.7473 82.8937 60.6311 82.7356C61.1056 82.7356 61.5009 82.7356 61.8963 82.7356Z" fill="#DAF5F0" fill-opacity="0.3"/>
<path d="M69.7237 61.6238C96.2123 61.6238 120.566 68.2657 146.343 75.3029L148.873 76.0146C153.064 77.1216 157.255 78.3867 161.683 79.6518C186.273 86.8472 211.734 94.2008 235.93 87.4798C246.13 84.6332 255.855 80.5216 265.265 76.489C280.051 70.2424 295.232 63.7587 312.47 62.3354L312.549 63.1261C295.47 64.5494 280.921 70.7169 265.581 77.2006C256.172 81.2332 246.446 85.3449 236.167 88.1914C211.734 94.9914 186.194 87.5588 161.445 80.3634C157.017 79.0983 152.827 77.8332 148.715 76.7262L146.185 76.0146C120.013 68.8982 95.2634 62.1772 68.3795 62.3354C57.1515 62.4145 45.8444 62.5726 34.6164 62.6517C22.9141 62.8098 11.2116 62.8889 -0.490723 63.047V62.2563C11.2116 62.1772 22.9141 62.0191 34.6164 61.861C45.8444 61.7028 57.1515 61.6238 68.3795 61.5447C68.7749 61.6238 69.2493 61.6238 69.7237 61.6238Z" fill="#DAF5F0" fill-opacity="0.3"/>
<path d="M43.077 41.0654C79.8447 41.0654 115.506 42.1724 152.194 48.5771C154.724 49.0515 157.255 49.4469 159.864 49.9213C183.743 54.1911 208.413 58.619 232.688 55.0609C243.046 53.5585 253.246 51.1864 263.209 48.9724C279.102 45.3352 295.549 41.6189 312.549 41.3026V42.0933C295.628 42.4096 279.181 46.1259 263.367 49.7632C253.483 52.0562 243.204 54.3492 232.846 55.8516C208.413 59.4097 183.664 54.9818 159.706 50.712C157.176 50.2376 154.566 49.7632 152.036 49.3678C106.017 41.3026 61.5794 41.698 14.5326 42.0143C9.55124 42.0143 4.49069 42.0933 -0.490723 42.0933V41.3026C4.56976 41.3026 9.55124 41.2236 14.5326 41.2236C24.1001 41.0654 33.6676 41.0654 43.077 41.0654Z" fill="#DAF5F0" fill-opacity="0.3"/>
<path d="M69.1702 19.7957C97.6356 19.7957 126.417 20.2701 154.803 22.1678C181.371 23.9864 205.409 25.4096 229.841 24.4608C240.437 24.0654 251.19 23.1957 261.548 22.405C278.232 21.1398 295.391 19.7957 312.549 20.191V20.9817C295.47 20.5864 278.311 21.9305 261.628 23.1957C251.269 23.9864 240.516 24.8562 229.92 25.2515C205.488 26.2003 181.45 24.7771 154.803 22.9585C113.45 20.191 71.3051 20.5073 30.5048 20.7445C20.3047 20.8236 9.78841 20.9026 -0.569824 20.9026V20.1119C9.78841 20.1119 20.3047 20.0329 30.5048 19.9538C43.3142 19.8747 56.2027 19.7957 69.1702 19.7957Z" fill="#DAF5F0" fill-opacity="0.3"/>
<path d="M20.7794 -0.525421C21.0957 19.5584 20.305 39.8795 19.5143 59.489C18.2491 90.9589 16.984 123.536 20.4631 155.797C24.1004 189.164 22.9143 222.927 21.8073 255.583C21.0957 275.351 20.384 295.751 20.7794 315.914H19.9887C19.6724 295.751 20.384 275.272 21.0166 255.504C22.2027 222.848 23.3887 189.164 19.7515 155.797C16.1933 123.457 17.5375 90.8799 18.8026 59.3308C19.5933 39.7214 20.3841 19.4793 20.0678 -0.604492L20.7794 -0.525421Z" fill="#DAF5F0" fill-opacity="0.3"/>
<path d="M40.784 -0.525635H41.5747C41.3375 17.2652 38.4119 34.977 35.6445 52.0561C34.063 61.8609 32.4026 71.9819 31.2956 82.0238C28.6863 105.271 31.4537 125.987 40.4677 151.448C49.0864 175.485 52.012 195.49 50.2725 218.341C49.3236 230.834 47.8213 243.406 46.398 255.583C44.0259 275.351 41.6538 295.751 41.4957 316.072H40.705C40.8631 295.751 43.2352 275.272 45.6073 255.504C47.0306 243.327 48.5329 230.755 49.4818 218.262C51.2213 195.569 48.2957 175.722 39.677 151.764C30.584 126.224 27.8165 105.35 30.4258 82.0238C31.5328 71.9819 33.1933 61.8609 34.7747 52.0561C37.7003 34.8188 40.5468 17.2652 40.784 -0.525635Z" fill="#DAF5F0" fill-opacity="0.3"/>
<path d="M61.6589 -0.525635L62.4496 -0.446564C61.3426 17.7396 56.4402 35.0561 51.696 51.898C48.9286 61.6237 46.082 71.7447 44.0262 81.9448C38.4122 109.461 45.5285 125.75 60.71 146.15C77.3148 168.527 81.8218 184.578 78.5799 209.564C76.7613 223.402 74.152 237.318 71.5427 250.76C67.5101 272.03 63.3194 294.012 62.3705 316.072H61.5798C62.5287 293.932 66.7194 271.951 70.752 250.681C73.2822 237.239 75.9706 223.323 77.7892 209.564C81.0311 184.736 76.5241 168.922 60.0775 146.703C44.7378 126.066 37.5424 109.699 43.2355 81.8657C45.2913 71.6656 48.1379 61.5446 50.9053 51.819C55.7286 34.8188 60.5519 17.5024 61.6589 -0.525635Z" fill="#DAF5F0" fill-opacity="0.3"/>
<path d="M82.533 -0.525635L83.3238 -0.446564C81.6633 18.1349 75.0214 35.2141 68.6167 51.7398C64.8213 61.4655 60.9469 71.4283 58.1004 81.7075C50.1934 110.015 59.5237 124.089 80.8727 141.564C101.51 158.406 110.366 171.769 105.384 202.053C102.933 216.997 99.296 232.02 95.817 246.49C90.3611 269.025 84.747 292.351 83.3238 315.993L82.533 315.914C83.9563 292.193 89.5703 268.867 95.0262 246.253C98.5053 231.783 102.143 216.839 104.594 201.895C109.575 172.006 100.719 158.801 80.3982 142.117C58.812 124.406 49.3236 110.173 57.3888 81.4703C60.3144 71.1121 64.1887 61.0701 67.905 51.4235C74.3097 34.9769 80.8726 17.8977 82.533 -0.525635Z" fill="#DAF5F0" fill-opacity="0.3"/>
<path d="M103.408 -0.525635L104.199 -0.446564C102.301 18.6094 94.3149 35.4513 86.6451 51.6608C82.059 61.2283 77.3148 71.1911 73.8357 81.5494C63.9519 110.964 75.5753 124.089 101.906 139.271C103.013 139.903 104.12 140.536 105.306 141.169C113.213 145.676 121.436 150.262 127.366 157.299C137.645 169.476 134.72 184.025 131.952 198.178C128.869 213.834 124.282 229.411 119.855 244.434C113.134 267.523 106.096 291.402 104.199 315.993L103.408 315.914C105.306 291.323 112.343 267.365 119.064 244.197C123.492 229.174 127.999 213.597 131.083 197.941C133.85 184.025 136.776 169.555 126.734 157.694C120.882 150.736 112.738 146.15 104.91 141.722C103.803 141.089 102.617 140.457 101.51 139.824C74.7846 124.406 63.0031 111.122 73.045 81.2331C76.5241 70.7958 81.2683 60.8329 85.8544 51.1863C93.6033 35.1351 101.51 18.3722 103.408 -0.525635Z" fill="#DAF5F0" fill-opacity="0.3"/>
<path d="M124.283 -0.525635L125.073 -0.446564C123.65 18.7675 117.878 36.9537 112.264 54.5864C108.943 65.1027 105.464 76.0144 102.934 87.0052C96.8451 113.652 102.538 128.754 125.39 146.862C147.925 164.731 153.46 179.043 148.32 205.69C145.632 219.764 142.073 233.839 138.673 247.439C133.059 269.658 127.287 292.667 125.152 315.993L124.362 315.914C126.576 292.509 132.348 269.5 137.962 247.281C141.362 233.681 144.92 219.606 147.608 205.611C152.669 179.28 147.134 165.127 124.915 147.494C101.748 129.15 96.0545 113.81 102.222 86.8471C104.752 75.7772 108.231 64.8655 111.552 54.3491C117.087 36.7165 122.859 18.5303 124.283 -0.525635Z" fill="#DAF5F0" fill-opacity="0.3"/>
<path d="M145.157 -0.525635L145.948 -0.446564C144.92 19.7955 141.203 39.9584 137.566 59.4097C135.352 71.2703 133.059 83.6052 131.478 95.7821C127.841 122.745 131.32 139.824 144.841 160.857C157.808 181.02 161.683 197.704 158.678 220.16C157.255 230.597 155.594 241.193 153.934 251.472C150.534 272.583 147.055 294.328 145.948 316.072L145.157 315.993C146.264 294.249 149.743 272.425 153.143 251.314C154.804 241.113 156.464 230.518 157.887 220.002C160.892 197.467 157.176 181.494 144.129 161.252C130.529 140.062 126.971 122.903 130.608 95.703C132.269 83.4471 134.562 71.1912 136.696 59.2516C140.413 39.7212 144.129 19.6373 145.157 -0.525635Z" fill="#DAF5F0" fill-opacity="0.3"/>
<path d="M166.032 -0.525635H166.822C166.585 19.5582 165.32 39.9584 164.134 59.726C161.762 98.1542 159.311 137.927 164.529 176.908C168.72 207.746 167.929 239.453 167.297 270.053C166.981 285.077 166.585 300.653 166.822 315.914H166.032C165.794 300.653 166.19 285.077 166.506 270.053C167.218 239.453 167.929 207.825 163.739 176.987C158.52 138.006 160.971 98.1542 163.343 59.6469C164.529 39.9584 165.794 19.5582 166.032 -0.525635Z" fill="#DAF5F0" fill-opacity="0.3"/>
<path d="M187.697 -0.525635C187.855 17.0279 188.725 35.2141 189.595 52.7677C191.808 98.6285 194.102 145.992 183.981 190.904C179.078 212.806 176.153 231.388 177.971 250.997C178.92 261.355 180.818 271.635 182.715 281.677C184.771 292.825 186.906 304.37 187.697 315.914L186.906 315.993C186.115 304.449 183.981 292.904 181.925 281.835C180.106 271.793 178.208 261.514 177.18 251.155C175.362 231.467 178.287 212.806 183.19 190.825C193.232 145.992 190.939 98.7076 188.725 52.8468C187.855 35.2932 186.985 17.107 186.827 -0.446564L187.697 -0.525635Z" fill="#DAF5F0" fill-opacity="0.3"/>
<path d="M208.571 -0.525635C209.362 25.5675 212.288 51.898 215.055 77.3586C216.557 91.3541 218.139 105.745 219.404 119.978C221.855 148.522 220.669 170.504 207.306 198.574C198.688 216.76 191.097 236.606 194.339 258.509C195.683 267.365 198.45 275.667 201.139 283.653C204.539 293.774 208.018 304.212 208.571 315.914L207.781 315.993C207.227 304.449 203.748 294.011 200.348 283.97C197.66 275.904 194.892 267.602 193.548 258.667C190.306 236.527 197.897 216.602 206.595 198.257C219.878 170.345 221.064 148.443 218.613 120.057C217.427 105.824 215.846 91.4331 214.264 77.4377C211.497 51.977 208.571 25.5675 207.781 -0.525635H208.571Z" fill="#DAF5F0" fill-opacity="0.3"/>
<path d="M229.446 -0.525635C230.237 18.135 232.609 37.5072 234.981 56.1678C240.753 102.266 246.604 149.866 229.683 193.908C221.302 215.653 216.162 234.392 218.376 254.872C219.404 264.123 221.539 273.137 223.674 281.835C226.283 292.746 229.051 304.053 229.446 315.914H228.655C228.26 304.133 225.492 292.905 222.883 281.993C220.748 273.295 218.613 264.202 217.585 254.951C215.371 234.313 220.511 215.495 228.972 193.592C245.814 149.708 239.962 102.187 234.19 56.2469C231.897 37.5072 229.446 18.135 228.655 -0.525635H229.446Z" fill="#DAF5F0" fill-opacity="0.3"/>
<path d="M250.321 -0.525635C250.953 17.3443 252.614 35.4514 254.195 52.9259C258.149 95.8611 262.26 140.299 250.716 183.629C245.418 203.476 240.753 224.904 242.255 247.597C242.967 257.876 244.548 268.156 246.13 278.039C248.028 290.374 250.004 303.026 250.321 315.914H249.53C249.214 303.105 247.237 290.453 245.339 278.197C243.758 268.235 242.176 257.955 241.465 247.676C239.883 224.904 244.627 203.318 249.925 183.471C261.469 140.299 257.358 95.9402 253.404 53.0841C251.823 35.5304 250.083 17.4233 249.53 -0.446564L250.321 -0.525635Z" fill="#DAF5F0" fill-opacity="0.3"/>
<path d="M271.195 -0.525635C271.432 17.0279 272.381 34.6606 273.251 51.8189C275.307 91.0378 277.363 131.601 271.591 171.848C266.846 204.978 268.27 236.211 269.772 269.262C270.484 284.444 271.195 300.179 271.195 315.993H270.405C270.325 300.258 269.614 284.523 268.981 269.342C267.479 236.211 266.056 204.978 270.8 171.769C276.572 131.68 274.516 91.1169 272.46 51.898C271.591 34.7397 270.642 17.107 270.405 -0.446564L271.195 -0.525635Z" fill="#DAF5F0" fill-opacity="0.3"/>
<path d="M291.279 -0.525635H292.07C292.07 37.9816 292.149 77.1215 292.228 114.996C292.386 180.862 292.623 248.941 292.07 315.914H291.279C291.833 248.941 291.674 180.862 291.437 114.996C291.358 77.1215 291.2 37.9816 291.279 -0.525635Z" fill="#DAF5F0" fill-opacity="0.3"/>
</g>
</g>
<defs>
<clipPath id="clip0_2088_91">
<rect width="312" height="316" fill="white"/>
</clipPath>
<clipPath id="clip1_2088_91">
<rect width="314" height="318" fill="white" transform="translate(-1 -1)"/>
</clipPath>
</defs>
</svg>
