<svg width="1920" height="1080" viewBox="0 0 1920 1080" fill="none" xmlns="http://www.w3.org/2000/svg">
<g clip-path="url(#clip0_2074_61)">
<path d="M-2 1078.34C484.898 1078.6 971.78 1078.59 1458.65 1078.32C1612.76 1078.36 1766.88 1078.37 1921 1078.34" stroke="#C4A1FF" stroke-opacity="0.1" stroke-width="2" stroke-miterlimit="10"/>
<path d="M-2 1053.3C68.264 1053.77 138.5 1051.83 208.752 1051.26C279.639 1050.69 348.462 1043.28 418.835 1034.94C483.282 1027.3 546.471 1019.42 610.843 1029C665.776 1037.17 721.096 1042.44 776.384 1047.53C884.984 1057.52 996.818 1057.51 1105.88 1055.57C1223.1 1053.49 1340.43 1052.35 1457.66 1054.03C1612.18 1056.24 1766.54 1051.89 1921 1053.3" stroke="#C4A1FF" stroke-opacity="0.1" stroke-width="2" stroke-miterlimit="10"/>
<path d="M-2 1028.26C66.352 1028.43 134.51 1023.87 202.808 1022C237.922 1021.04 272.082 1020.95 306.908 1015.75C343.42 1010.29 379.641 1003.11 415.973 996.612C450.589 990.417 485.373 984.712 520.449 981.87C536.626 980.558 554.472 978.27 570.687 980.037C584.112 981.499 597.777 987.184 610.987 990.286C666.537 1003.33 723.294 1010.54 779.857 1017.55C832.389 1024.06 885.126 1024.14 937.876 1028.78C991.776 1033.52 1045.07 1037.3 1099.22 1036.33C1218.29 1034.21 1337.01 1026.69 1456.13 1031.32C1531.62 1034.25 1606.98 1038.83 1682.56 1037.67C1762.14 1036.44 1841.37 1027.98 1921 1028.27" stroke="#C4A1FF" stroke-opacity="0.1" stroke-width="2" stroke-miterlimit="10"/>
<path d="M-2 1003.22C64 1002.76 129.445 995.156 195.285 991.616C229.614 989.77 263.304 989.87 297.317 984.168C333.445 978.111 369.075 969.497 404.89 961.888C438.744 954.695 472.928 948.158 507.524 945.94C523.284 944.93 540.792 943.548 556.478 946.147C570.717 948.506 584.907 955.134 598.947 958.857C658.526 974.657 720.138 981.722 781.271 988.44C833.259 994.153 885.271 995.707 937.007 1003.93C988.261 1012.07 1038.64 1019.8 1090.71 1018.75C1212.46 1016.3 1332.4 1001.28 1454.33 1009.42C1532.23 1014.62 1610.37 1023.82 1688.54 1020.82C1766.3 1017.84 1843.08 1003.96 1921 1003.22" stroke="#C4A1FF" stroke-opacity="0.1" stroke-width="2" stroke-miterlimit="10"/>
<path d="M-2 978.183C61.744 977.109 124.3 966.411 187.7 961.19C220.833 958.462 253.867 958.99 286.735 953.398C321.723 947.45 356.012 938.11 390.556 930.104C422.921 922.604 455.842 915.877 489.163 915.004C522.531 914.133 549.752 924.181 581.403 932.504C646.618 949.659 714.423 955.457 781.461 960.445C833.861 964.345 884.861 966.735 936.127 979.075C984.598 990.742 1031.88 1002.36 1082.14 1001.23C1142.61 999.865 1202.73 992.219 1262.92 986.955C1326.01 981.423 1389.47 981.622 1452.52 987.55C1532.58 994.956 1613.98 1009.07 1694.56 1004.03C1770.58 999.286 1844.64 979.928 1921 978.178" stroke="#C4A1FF" stroke-opacity="0.1" stroke-width="2" stroke-miterlimit="10"/>
<path d="M-2 953.144C60.056 951.79 120.105 938.374 181.591 931.808C213.707 928.378 246.091 929.538 278.001 924.239C311.809 918.624 344.722 908.776 377.952 900.595C408.793 893.003 440.485 886.271 472.422 886.995C505.216 887.735 533.782 901.018 565.045 909.046C635.416 927.118 708.962 931.146 781.274 933.846C834.714 935.84 884.224 937.746 935.504 954.108C981.736 968.858 1026.09 983.308 1075.29 982.174C1136.38 980.774 1196.99 970.987 1257.63 964.349C1322.87 957.208 1385.73 957.621 1450.97 964.939C1532.67 974.104 1616.92 992.205 1699.39 985.619C1774.14 979.65 1845.71 955.379 1921 953.148" stroke="#C4A1FF" stroke-opacity="0.1" stroke-width="2" stroke-miterlimit="10"/>
<path d="M-2 928.105C59.382 927.105 117.851 911.645 178.468 904.55C210.225 900.833 242.373 902.75 273.928 897.489C307.249 891.938 339.452 881.318 372.04 872.698C401.987 864.776 433.14 857.756 464.33 859.816C496.741 861.957 525.511 878.044 556.539 886.258C629.501 905.573 706.455 908.152 781.531 908.876C835.681 909.398 884.099 909.8 935.387 928.863C980.714 945.711 1022.73 960.919 1071.92 959.97C1133.3 958.785 1194.07 947.708 1254.88 940.302C1320.73 932.281 1384.07 932.697 1449.93 940.782C1532.69 950.941 1618.05 970.735 1701.78 963.849C1776.06 957.739 1846 929.77 1921 928.105" stroke="#C4A1FF" stroke-opacity="0.1" stroke-width="2" stroke-miterlimit="10"/>
<path d="M-2 903.066C59.531 901.753 118.735 887.64 179.637 880.938C211.365 877.447 243.427 878.871 274.99 874.031C308.247 868.931 340.62 859.42 373.306 851.674C403.606 844.495 434.839 838.188 466.145 839.733C498.497 841.333 527.587 855.495 558.728 862.954C630.642 880.179 705.628 881.995 779.221 883.026C833.49 883.786 882.309 884.143 933.446 904.052C979.04 921.804 1020.47 937.103 1070.26 936.415C1131.8 935.566 1191.91 920.415 1252.53 911.539C1318.79 901.839 1383 907.853 1449.28 914.508C1493.14 918.908 1536.94 923.817 1580.76 928.589C1619.96 932.859 1660.19 939.728 1699.71 938.378C1774.86 935.812 1845.61 905.56 1921 903.066" stroke="#C4A1FF" stroke-opacity="0.1" stroke-width="2" stroke-miterlimit="10"/>
<path d="M-2 878.027C60.254 876.879 121.023 865.337 182.858 859.706C214.797 856.798 246.958 857.942 278.79 853.981C312.158 849.829 344.944 842.095 377.944 835.824C408.865 829.948 440.452 824.843 472.039 826.111C503.853 827.389 533.206 838.743 564.21 844.697C633.2 857.945 704.094 857.672 774.066 857.75C828.63 857.812 876.718 858.838 927.641 880.101C973.198 899.125 1014.92 916.483 1065.37 915.158C1126.91 913.541 1185.67 892.152 1245.57 880.278C1312.59 866.992 1376.93 878.868 1444.23 883.952C1488.12 887.267 1532.07 889.926 1575.89 894.197C1615.43 898.051 1655.16 907.886 1694.78 909.297C1771.38 912.028 1844.57 880.553 1921 878.026" stroke="#C4A1FF" stroke-opacity="0.1" stroke-width="2" stroke-miterlimit="10"/>
<path d="M-2 852.987C61.387 852.381 123.968 843.765 187.13 839.716C219.43 837.646 251.848 838.66 284.09 835.806C317.716 832.83 351.02 827.106 384.446 822.537C416.113 818.204 448.134 814.588 480.146 815.717C511.146 816.81 540.727 825.417 571.346 829.405C636.346 837.878 702.174 834.653 767.48 832.956C822.431 831.529 869.103 833.717 919.736 856.607C964.951 877.048 1007.6 897.69 1058.65 895.17C1120.25 892.129 1177.2 863.515 1236.02 847.826C1303.82 829.742 1367.98 847.406 1436.61 850.954C1480.71 853.235 1524.94 853.659 1568.96 857.454C1609.7 860.971 1648.14 873.581 1688.37 878.184C1766.45 887.116 1843.14 854.892 1921 852.984" stroke="#C4A1FF" stroke-opacity="0.1" stroke-width="2" stroke-miterlimit="10"/>
<path d="M-2 827.948C62.668 827.956 127 822.336 191.572 819.926C258.457 817.426 324.483 815.276 391.248 809.663C423.606 806.942 456.129 804.763 488.618 805.841C518.875 806.841 548.557 812.788 578.745 814.589C639.451 818.21 700.119 811.805 760.663 808.24C815.949 804.985 861.247 808.729 911.493 833.187C956.193 854.944 1000.11 879.224 1051.63 875.387C1113.5 870.78 1168.42 834.8 1226.04 815.187C1252.26 806.261 1280.34 799.506 1308.22 802.998C1348.78 808.08 1387.36 816.388 1428.56 817.569C1472.92 818.84 1517.4 817.014 1561.7 820.348C1604.21 823.548 1640.65 838.784 1681.72 846.757C1760.94 862.137 1841.64 829.128 1921 827.952" stroke="#C4A1FF" stroke-opacity="0.1" stroke-width="2" stroke-miterlimit="10"/>
<path d="M-2 802.909C130.74 803.669 264.155 800.019 396.784 795.048C459.853 792.684 522.149 798.358 585.024 797.761C641.924 797.221 698.224 788.009 754.818 783.197C810.307 778.478 854.874 783.753 904.676 809.456C948.96 832.31 993.898 859.546 1045.86 854.742C1108.24 848.974 1161.25 806.333 1217.83 783.348C1243.22 773.035 1271.01 765.088 1298.64 769.47C1340.67 776.135 1379.22 785.579 1422.27 785.831C1466.78 786.092 1511.35 781.977 1555.83 784.822C1577.45 786.204 1599.05 789.102 1619.82 795.44C1639.09 801.319 1656.6 811.461 1676.08 816.694C1755.84 838.121 1840.49 803.785 1921 802.909" stroke="#C4A1FF" stroke-opacity="0.1" stroke-width="2" stroke-miterlimit="10"/>
<path d="M-2 777.87C131.82 778.202 265.667 776.812 399.49 776.542C462.363 776.416 526.04 780.308 588.79 776.433C643.236 773.071 696.844 762.217 751.142 757.423C806.759 752.512 851.572 758.564 901.042 785.031C945.359 808.741 990.3 837.109 1042.85 832.168C1106.02 826.229 1157.5 778.486 1213.56 753.32C1238.49 742.127 1266.09 733.757 1293.57 739.559C1336.8 748.686 1375.11 758.588 1419.89 757.803C1464.29 757.025 1508.65 750.557 1553.09 752.86C1574.73 753.981 1596.32 757.101 1616.83 764.372C1636.23 771.248 1653.15 783.213 1672.67 789.717C1752.17 816.201 1840.15 779.447 1920.99 777.87" stroke="#C4A1FF" stroke-opacity="0.1" stroke-width="2" stroke-miterlimit="10"/>
<path d="M-2 752.831C65.494 752.198 132.822 759.436 200.3 758.001C267.69 756.568 334.2 749.292 401.836 750.523C465.786 751.687 530.562 758.102 594.413 753.052C648.151 748.802 701.064 737.758 754.727 732.852C809.503 727.84 854.288 734.603 903.427 759.623C947.527 782.078 993.537 810.123 1045.16 804.949C1107.63 798.688 1160.14 754.196 1216.52 730.538C1241.66 719.989 1269.39 711.872 1296.86 716.738C1316.17 720.155 1334.57 727.172 1354.11 730.012C1376.54 733.271 1399.24 733.872 1421.86 733.337C1465.59 732.302 1509.26 725.802 1553.05 728.002C1574.58 729.083 1596.05 732.191 1616.49 739.318C1637.2 746.54 1655.62 758.498 1676.65 765.045C1757.34 790.165 1839.65 754.904 1921 752.838" stroke="#C4A1FF" stroke-opacity="0.1" stroke-width="2" stroke-miterlimit="10"/>
<path d="M-2 727.792C67.687 727.82 135.912 747.37 205.534 745.846C238.299 745.13 269.406 735.197 301.824 731.546C338.714 727.39 376.008 727.232 413.073 728.346C479.892 730.346 548.067 741.817 614.709 734.51C666.295 728.854 716.959 717.01 768.459 710.745C820.934 704.357 865.221 711.126 913.573 732.367C958.432 752.074 1004.45 775.834 1055.03 771.507C1116.55 766.245 1171.43 730.445 1229.08 711.407C1255.16 702.795 1283.19 696.334 1310.8 700.168C1351.65 705.841 1388.63 714.156 1430.38 712.514C1472.14 710.872 1513.8 704.531 1555.66 706.114C1602.53 707.884 1638.45 728.136 1682.58 740.188C1764.28 762.503 1839.54 729.922 1921 727.796" stroke="#C4A1FF" stroke-opacity="0.1" stroke-width="2" stroke-miterlimit="10"/>
<path d="M-2 702.753C70.716 704.563 139.257 737.345 211.845 736.876C245.601 736.657 275.525 721.268 308.35 715.383C347.479 708.367 387.62 707.696 427.25 708.991C497.238 711.278 570.012 727.633 639.569 717.362C689.011 710.062 737.469 697.387 786.818 689.543C836.718 681.61 880.718 687.404 928.282 703.933C974.44 719.973 1019.61 737.094 1069.41 734.516C1130.51 731.353 1188.05 706.21 1247.31 693.38C1313.69 679.012 1376.41 698.795 1443.21 694.162C1482.18 691.462 1520.98 684.805 1560.13 685.295C1606.51 685.876 1644.28 704.53 1688.5 715.331C1728.75 725.16 1768.72 727.26 1809.55 720.157C1847.05 713.633 1882.66 703.781 1920.99 702.757" stroke="#C4A1FF" stroke-opacity="0.1" stroke-width="2" stroke-miterlimit="10"/>
<path d="M-2 677.714C74.192 681.725 142.438 727.746 218.434 728.722C253.192 729.169 281.105 708.189 313.954 699.737C354.065 689.416 396.127 687.776 437.346 688.837C509.707 690.69 585.614 710.075 657.305 697.951C706.689 689.6 755.193 676.797 804.489 667.986C901.347 650.674 988.602 697.943 1084.95 696.621C1146.23 695.781 1206.24 681.826 1267.02 675.642C1330.94 669.142 1393.33 683.349 1457.16 676.448C1493.13 672.56 1528.85 665.47 1565.1 664.76C1611.03 663.86 1650.24 680.687 1694.44 690.483C1735.36 699.553 1776.38 703.358 1817.76 695.383C1852.68 688.651 1885.08 678.712 1921 677.722" stroke="#C4A1FF" stroke-opacity="0.1" stroke-width="2" stroke-miterlimit="10"/>
<path d="M-2 652.675C77.621 658.48 145.167 717.108 224.5 719.021C260.1 719.88 284.012 693.179 315.88 681.395C354.16 667.239 395.828 663.963 436.333 664.23C509.397 664.712 583.653 683.257 656.226 672.59C709.769 664.72 762.672 653.055 816.151 644.79C910.826 630.152 1003.49 659.054 1098.3 660.445C1160.23 661.352 1222.04 657.68 1283.95 657.361C1346.12 657.041 1407.1 666.561 1469.01 657.53C1502.35 652.667 1535.44 645.361 1569.16 643.697C1615.15 641.428 1655.79 656.558 1700.37 665.628C1741.74 674.043 1784.24 679.589 1825.97 670.596C1858.37 663.613 1887.37 653.631 1921 652.678" stroke="#C4A1FF" stroke-opacity="0.1" stroke-width="2" stroke-miterlimit="10"/>
<path d="M-2 627.636C41.353 630.91 79.983 649.417 118.859 667.636C152.734 683.51 190.753 704.816 229.236 705.409C266.003 705.976 282.336 673.879 311.364 657.145C343.309 638.729 380.814 632.76 417.181 631.553C486.648 629.253 555.135 642.953 624.636 637.627C688.715 632.712 752.436 624.006 816.478 618.692C913.359 610.653 1009.28 626.66 1106.11 628.629C1168.75 629.903 1231.36 634.129 1293.91 637.729C1355.13 641.252 1414.73 645.742 1475.56 635.584C1507.26 630.291 1538.78 623.342 1570.92 621.323C1617.89 618.371 1660.51 632.038 1706.31 640.775C1747.79 648.688 1792.39 655.99 1834.17 645.814C1864.13 638.52 1889.5 628.556 1921 627.639" stroke="#C4A1FF" stroke-opacity="0.1" stroke-width="2" stroke-miterlimit="10"/>
<path d="M-2 602.6C41.247 605.964 79.828 624.388 118.674 642.464C152.608 658.254 190.674 679.346 229.174 679.814C266.152 680.263 279.494 649.867 306.705 631.241C333.631 612.81 366.186 605.314 398.311 603.06C462.344 598.56 526.223 609.871 590.457 606.437C663.234 602.546 735.963 597.809 808.736 593.837C908.615 588.389 1007.21 596.182 1106.8 603.325C1227.95 612.015 1354.43 626.705 1475.17 609.214C1506.72 604.643 1538.21 599.174 1570.1 597.596C1616.78 595.287 1659.37 606.381 1705.14 614.417C1746.86 621.741 1791.06 628.23 1833.05 619.085C1863.21 612.516 1889.59 603.406 1921 602.597" stroke="#C4A1FF" stroke-opacity="0.1" stroke-width="2" stroke-miterlimit="10"/>
<path d="M-2 577.558C78.016 583.445 146.374 643.631 226.333 644.145C262.233 644.376 279.124 618.924 307.16 601.77C333.846 585.442 364.56 577.125 395.433 573.563C456.589 566.508 519.195 574.749 580.633 572.783C654.082 570.433 727.593 572.138 801.049 570.163C904.157 567.391 1004.29 563.028 1106.51 579.179C1167.41 588.803 1229.75 585.924 1291.12 584.035C1351.47 582.178 1411.5 582.479 1471.7 577.381C1503.44 574.695 1535.19 571.844 1567.06 571.586C1611.59 571.226 1653.01 579.609 1696.89 586.437C1738.99 592.988 1781.73 597.222 1824.09 590.657C1856.83 585.583 1887.6 578.131 1921 577.557" stroke="#C4A1FF" stroke-opacity="0.1" stroke-width="2" stroke-miterlimit="10"/>
<path d="M-2 552.519C75.642 556.659 145.533 606.278 223.248 604.991C258.335 604.41 279.448 582.772 308.353 566.733C335.561 551.633 365.383 541.664 395.888 535.822C454.577 524.584 516.788 527.284 576.231 529.046C648.307 531.181 719.804 541.987 791.831 544.923C847.039 547.174 901.85 542.883 956.9 539.645C1009.25 536.565 1055.36 543.06 1106.14 554.845C1165.22 568.554 1227.78 557.819 1287.02 550.645C1346.87 543.402 1406.52 542.223 1466.76 541.921C1541.65 541.545 1613.65 548.204 1687.76 558.215C1729.97 563.915 1772.23 566.457 1814.67 562.099C1850.31 558.44 1885.05 552.799 1921 552.514" stroke="#C4A1FF" stroke-opacity="0.1" stroke-width="2" stroke-miterlimit="10"/>
<path d="M-2 527.48C73.42 529.555 144.57 568.058 220.084 564.674C254.784 563.119 280.218 544.83 310.119 529.658C338.413 515.181 368.04 503.474 398.587 494.7C455.787 478.491 516.541 474.165 575.587 480.866C645.393 488.789 712.943 509.779 782.554 518.913C839.425 526.375 894.037 519.232 950.562 513.121C974.381 510.547 998.43 508.66 1022.39 510.265C1052.08 512.253 1077.66 521.905 1105.77 530.445C1163.08 547.857 1226.19 528.479 1282.56 516.117C1343 502.862 1400.19 500.371 1461.78 505.38C1534.62 511.305 1606.99 522.248 1679.6 530.261C1760.92 539.236 1839.82 527.499 1921 527.476" stroke="#C4A1FF" stroke-opacity="0.1" stroke-width="2" stroke-miterlimit="10"/>
<path d="M-2 502.441C71.562 502.948 143.378 530.441 217 525.521C282.031 521.172 342.283 477.664 402.436 455.081C458.6 434 517.363 422.086 577 433.905C644.642 447.31 707.436 477.932 774.651 492.946C832.858 505.946 887.044 495.171 944.895 486.428C969.895 482.649 995.314 479.61 1020.64 481.249C1052 483.278 1076.68 495.067 1105.4 506.115C1161.15 527.559 1225.18 499.438 1278.46 482.736C1306.7 473.886 1335.77 464.894 1365.47 462.815C1396.2 460.664 1427.87 465.424 1458.15 470.293C1530.47 481.918 1600.95 497.306 1674.19 503.074C1756.61 509.565 1838.55 502.103 1921 502.441" stroke="#C4A1FF" stroke-opacity="0.1" stroke-width="2" stroke-miterlimit="10"/>
<path d="M-2 477.4C70.174 477.574 141.95 495.035 214.156 489.853C283.027 484.91 344.695 449.865 406.342 421.821C461.331 396.808 518.4 378.461 578.811 393.8C645.228 410.662 703.869 448.929 769.598 467.811C828.411 484.711 882.933 470.217 941.289 459.196C967.111 454.32 993.575 450.196 1019.94 451.961C1052.85 454.161 1076.3 467.928 1105.11 481.97C1159.44 508.449 1224.81 472.522 1275.5 452.784C1303.36 441.937 1332.34 430.963 1362.4 428.491C1393.92 425.898 1426.67 432.452 1457.32 439.191C1530.2 455.209 1598.24 474.521 1673.37 477.147C1755.9 480.031 1838.45 477.117 1921 477.404" stroke="#C4A1FF" stroke-opacity="0.1" stroke-width="2" stroke-miterlimit="10"/>
<path d="M-2 452.362C69.652 454.509 141.533 465.59 213.266 460.819C283.824 456.127 344.966 428.349 407.622 397.888C462.151 371.378 517.97 350.642 578.989 366.309C645.37 383.353 703.16 423.282 768.651 442.855C827.768 460.522 882.737 445.83 941.264 433.746C967 428.432 993.455 423.764 1019.84 425.465C1053.29 427.622 1076.35 442.182 1105.09 457.287C1159.06 485.659 1224.61 448.043 1274.83 427.599C1302.61 416.293 1331.62 404.855 1361.81 402.438C1394.58 399.815 1428.51 407.075 1460.23 414.6C1496.45 423.189 1532 434.363 1568.38 442.283C1606.04 450.483 1642.26 452.133 1680.64 451.678C1760.76 450.729 1840.88 452.212 1921 452.362" stroke="#C4A1FF" stroke-opacity="0.1" stroke-width="2" stroke-miterlimit="10"/>
<path d="M-2 427.323C69.931 432.128 142.51 440.406 214.635 434.929C283.435 429.704 343.211 406.193 405.29 377.764C460.359 352.545 515.478 333.444 576.405 347.619C643.053 363.126 702.891 398.819 768.534 417.454C828.134 434.376 883.378 423.531 942.66 411.636C967.674 406.618 993.225 402.011 1018.85 403.236C1051.82 404.815 1076.14 418.319 1105.33 431.72C1160.07 456.849 1223.65 424.914 1275.39 406.163C1303.24 396.069 1332.05 385.963 1361.82 383.663C1395.13 381.089 1429.64 388.355 1462.02 395.492C1498.86 403.614 1535.22 413.949 1572.39 420.549C1611.09 427.419 1647.92 426.895 1686.96 425.249C1764.95 421.961 1843.01 426.894 1921 427.325" stroke="#C4A1FF" stroke-opacity="0.1" stroke-width="2" stroke-miterlimit="10"/>
<path d="M-2 402.284C70.109 409.228 142.512 415.277 214.91 409.132C282.937 403.358 342.371 384.39 405.123 358.68C460.629 335.939 514.65 321.546 574.692 333.417C641.472 346.617 703.426 376.784 769.306 393.302C828.864 408.235 884.899 400.967 944.189 389.494C968.389 384.81 992.789 380.423 1017.54 381.068C1050.3 381.921 1075.14 394.168 1104.76 406.102C1159.98 428.352 1220.35 404.53 1273.88 388.234C1303.43 379.234 1333.82 370.267 1364.89 368.913C1398.15 367.463 1431.86 373.535 1464.35 379.955C1500.8 387.155 1537 396.021 1573.92 400.563C1612.94 405.363 1649.87 401.751 1688.79 398.963C1766.1 393.429 1843.65 401.656 1921 402.281" stroke="#C4A1FF" stroke-opacity="0.1" stroke-width="2" stroke-miterlimit="10"/>
<path d="M-2 377.245C71.014 386.045 143.015 390.306 216.331 383.245C279.535 377.386 341.737 363.512 401.439 341.955C457.084 322.117 510.817 311.264 569.939 320.122C637.571 330.254 701.964 354.908 768.707 369.093C828.807 381.864 885.688 378.576 945.58 367.384C969.047 363 992.593 358.631 1016.56 358.836C1048.91 359.113 1075.17 369.914 1104.98 380.757C1160.44 400.929 1219.39 383.679 1274.45 370.673C1338.87 355.454 1397.4 354.095 1462.72 365.042C1498.51 371.042 1534.19 378.295 1570.45 380.821C1609.88 383.568 1646.71 376.849 1685.66 372.886C1763.91 364.927 1842.66 376.469 1920.99 377.24" stroke="#C4A1FF" stroke-opacity="0.1" stroke-width="2" stroke-miterlimit="10"/>
<path d="M-2 352.206C131.2 370.937 268.963 364.058 397.953 324.746C453.617 307.782 507.291 299.798 565.523 306.019C634.012 313.335 700.523 332.597 768.192 344.71C828.773 355.555 886.492 356.161 946.982 345.285C969.708 341.199 992.416 336.839 1015.58 336.615C1047.64 336.305 1075.17 345.661 1105.21 355.392C1160.88 373.421 1218.86 362.079 1275.02 352.527C1337.9 341.834 1397.33 340.652 1460.56 349.55C1495.51 354.468 1530.46 360.206 1565.82 360.876C1605.52 361.629 1642.12 351.976 1681.08 346.876C1760.7 336.46 1841.22 351.307 1921 352.203" stroke="#C4A1FF" stroke-opacity="0.1" stroke-width="2" stroke-miterlimit="10"/>
<path d="M-2 327.167C44.154 334.448 90.719 340.96 137.568 339.767C166.338 339.032 194.599 334.431 223.11 331.016C251.01 327.675 279.147 328.159 307.005 324.784C336.35 321.228 364.874 313.702 393.375 306.108C450.708 290.832 505.504 284.029 564.875 288.908C631.617 294.389 697.366 308.185 763.38 318.88C825.919 329.011 885.688 334.08 948.465 323.166C970.27 319.375 992.081 314.978 1014.28 314.358C1045.84 313.476 1074.59 321.038 1104.62 329.598C1161.88 345.918 1220.99 338.275 1279.13 331.658C1338.7 324.877 1396.01 323.915 1455.59 331.275C1489.51 335.464 1523.42 340.239 1557.68 339.988C1597.6 339.696 1633.66 328.362 1672.48 321.564C1754.59 307.186 1838.56 326.131 1921 327.174" stroke="#C4A1FF" stroke-opacity="0.1" stroke-width="2" stroke-miterlimit="10"/>
<path d="M-2 302.128C44.934 309.74 92.375 316.628 140.062 314.934C168.281 313.929 195.898 308.786 223.862 305.404C251.415 302.072 279.084 303.341 306.639 300.573C335.739 297.649 364.068 290.618 392.326 283.344C450.104 268.471 504.566 261.832 564.268 266.071C631.123 270.818 697.453 281.718 763.532 292.571C826.324 302.882 886.019 311.638 949.481 301.413C1004.39 292.566 1050.37 291.513 1104.99 304.313C1162.57 317.813 1221.3 312.14 1279.54 306.884C1338.71 301.545 1395.91 300.623 1454.95 308.091C1488.71 312.362 1522.48 317.12 1556.6 316.584C1596.77 315.953 1632.7 303.684 1671.64 296.392C1753.91 280.992 1838.35 300.655 1921 302.126" stroke="#C4A1FF" stroke-opacity="0.1" stroke-width="2" stroke-miterlimit="10"/>
<path d="M-2 277.089C73.12 287.362 144.547 288.635 219.8 281.665C249.7 278.896 279.8 279.765 309.612 276.835C339.186 273.926 367.859 266.259 396.45 258.49C453.25 243.058 506.692 237.528 565.541 240.878C633.716 244.759 701.625 254.437 768.767 266.659C830.167 277.836 887.899 289.383 950.537 281.699C1006.22 274.867 1053.6 271.66 1109.27 282.324C1165.47 293.088 1221.27 284.385 1277.29 277.07C1338.67 269.056 1398.43 268.122 1459.66 278.063C1494.6 283.737 1529.53 290.516 1565.02 291.417C1605.03 292.432 1641.24 281.473 1680.33 275.737C1760.05 264.037 1840.99 275.471 1921.01 277.089" stroke="#C4A1FF" stroke-opacity="0.1" stroke-width="2" stroke-miterlimit="10"/>
<path d="M-2 252.05C72.545 260.241 146.155 262.897 221.015 258.816C251.568 257.15 282.638 257.792 313.039 254.816C343.212 251.861 372.32 243.55 401.328 235.127C520.697 200.466 649.587 215.772 770.041 240.049C831.871 252.51 889.176 268.049 952.931 263.11C976.858 261.255 1000.63 257.745 1024.59 256.305C1055.75 254.432 1084.86 258.374 1115.6 262.505C1171.5 270.005 1225.48 255.317 1279.8 244.147C1342.12 231.331 1400.44 230.928 1462.66 244.967C1498.88 253.142 1534.85 263.194 1571.85 267.267C1611.75 271.659 1648 264.416 1687.27 259.007C1764.72 248.338 1843.06 251.28 1920.99 252.056" stroke="#C4A1FF" stroke-opacity="0.1" stroke-width="2" stroke-miterlimit="10"/>
<path d="M-2 227.011C132.533 238.099 277.93 254.611 408.42 212.923C523.614 176.123 654.61 187.34 771.6 213.46C834.065 227.406 890.861 247.139 955.9 245.032C981.207 244.212 1006.4 241.388 1031.67 239.999C1062.78 238.291 1092.33 241.718 1123.24 243.76C1178.89 247.437 1230.66 225.691 1282.88 209.96C1346.71 190.738 1402.31 191.649 1466.27 210.66C1504.01 221.882 1541.16 235.61 1579.82 243.495C1619.52 251.595 1655.78 249.057 1695.55 243.669C1770.43 233.525 1845.43 227.485 1921 227.008" stroke="#C4A1FF" stroke-opacity="0.1" stroke-width="2" stroke-miterlimit="10"/>
<path d="M-2 201.972C76.159 206.361 154.042 216.03 232.291 218.659C296.825 220.827 353.567 215.323 414.339 193.13C440.587 183.544 466.857 173.837 494.532 169.23C524.29 164.277 555.026 166.03 585.074 166.593C647.643 167.764 710.935 171.774 771.925 186.613C800.961 193.678 828.318 205.453 857.064 213.383C890.176 222.519 924.264 226.6 958.576 226.804C985.387 226.964 1012.1 224.804 1038.86 223.465C1069.94 221.91 1100.44 224.641 1131.4 224.683C1187.25 224.758 1237.15 195.441 1287.62 175.388C1312.26 165.588 1338.44 156.755 1365.13 155.088C1399.88 152.917 1434.57 164.164 1466.93 175.647C1545.49 203.525 1616.76 239.331 1702.2 228.182C1775.28 218.645 1847.05 203.575 1921 201.973" stroke="#C4A1FF" stroke-opacity="0.1" stroke-width="2" stroke-miterlimit="10"/>
<path d="M-2 176.933C80.213 179.724 161.044 195.348 242.9 202.095C276.1 204.832 311.05 207.267 344.08 201.595C372.38 196.738 398.662 185.407 424.752 173.872C449.8 162.8 474.875 151.55 501.818 145.9C530.953 139.787 561.203 141.565 590.796 141.75C651.769 142.131 713.787 144.257 773.036 159.977C801.856 167.624 828.31 180.863 856.562 190.077C890.216 201.052 925.239 206.577 960.569 207.844C988.523 208.844 1016.43 207.207 1044.33 205.704C1075.16 204.044 1106.09 205.62 1136.81 204.038C1192.99 201.147 1240.48 166.619 1289.68 143.238C1313.48 131.922 1339.25 121.755 1365.82 119.849C1401.31 117.303 1436.93 130.398 1469.43 143.249C1547.13 173.984 1621.71 220.349 1708.22 210.43C1779.95 202.205 1848.36 178.996 1921 176.938" stroke="#C4A1FF" stroke-opacity="0.1" stroke-width="2" stroke-miterlimit="10"/>
<path d="M-2 151.894C86.587 154.012 173.127 176.158 260.766 187.119C295.016 191.403 330.981 196.019 365.028 188.077C391.228 181.966 414.751 168.714 437.928 155.556C460.246 142.884 482.604 129.922 507.468 122.875C535.314 114.983 564.41 116.832 593.038 116.781C653.319 116.676 714.848 117.311 773.325 133.691C802.047 141.736 827.84 155.991 855.761 166.084C889.561 178.304 925.061 184.706 960.901 186.606C1019.3 189.706 1080.41 184.94 1138.69 180.42C1195.31 176.028 1241.23 139.59 1290.28 114.882C1313.92 102.974 1339.31 92.9818 1365.99 91.2398C1402.02 88.8878 1437.44 101.34 1470.35 114.604C1548.15 145.944 1623.4 196.132 1710.48 188.604C1782.05 182.416 1848.61 153.553 1921 151.894" stroke="#C4A1FF" stroke-opacity="0.1" stroke-width="2" stroke-miterlimit="10"/>
<path d="M-2 126.855C93.98 130.234 188.259 150.074 283.517 160.698C318.384 164.586 355.836 170.82 390.303 161.563C412.972 155.475 433.238 143.387 453.203 131.443C472.448 119.93 491.722 108.137 513.231 101.292C539.16 93.0411 565.937 94.9631 592.765 95.1921C652.941 95.7081 713.972 96.8571 772.752 111.128C801.095 118.01 827.214 130.169 854.918 138.922C888.418 149.506 923.242 154.968 958.278 156.801C1016.4 159.842 1077.91 157.661 1135.89 152.717C1191.71 147.956 1239.49 115.675 1289.45 93.5171C1313.45 82.8751 1339.27 73.4171 1365.71 71.6101C1401.06 69.1951 1436.79 81.3671 1469.55 93.3651C1546.52 121.557 1622.71 167.29 1707.29 160.201C1779.54 154.145 1848.14 129.085 1921 126.852" stroke="#C4A1FF" stroke-opacity="0.1" stroke-width="2" stroke-miterlimit="10"/>
<path d="M-2 101.816C93.31 104.736 187.416 120.955 282.237 129.716C317.302 132.955 354.237 138.216 389.023 130.516C411.353 125.571 432.112 115.809 452.67 106.09C472.465 96.7322 492.28 87.1902 513.558 81.6502C539.442 74.9082 565.831 76.4292 592.326 76.5952C652.38 76.9692 712.977 77.8592 772.143 89.2492C834.08 101.173 890.343 123.049 954.286 125.761C1012.16 128.214 1072.17 126.261 1129.96 122.416C1185.4 118.727 1235.55 93.0452 1287.27 75.2592C1312.24 66.6732 1338.4 59.2592 1364.92 57.8422C1399.59 55.9932 1434.37 65.2772 1467.31 75.1322C1544.2 98.1322 1618.86 133.721 1700.85 128.372C1774.85 123.546 1846.64 103.579 1921 101.819" stroke="#C4A1FF" stroke-opacity="0.1" stroke-width="2" stroke-miterlimit="10"/>
<path d="M-2 76.777C87.553 78.377 176.393 90.177 265.67 96.242C328.218 100.493 382.092 97.549 442.092 79.96C492.779 65.1 538.971 59.573 591.8 59.454C651.753 59.32 712 59.573 771.514 67.694C831.64 75.9 888.435 92.436 949.622 94.1C1007.05 95.663 1065.09 92.856 1122.49 90.827C1178.03 88.863 1230.71 70.906 1284.42 58.509C1345.51 44.409 1403.13 45.298 1464.38 58.358C1540.75 74.643 1613.84 98 1692.82 94.85C1769.18 91.808 1844.47 77.522 1921 76.777" stroke="#C4A1FF" stroke-opacity="0.1" stroke-width="2" stroke-miterlimit="10"/>
<path d="M-2 51.7369C141.68 52.0749 284.144 74.2039 427.236 53.5319C539.77 37.2749 657.572 36.8999 770.889 46.1289C829.28 50.8859 886.167 61.7999 944.983 62.4699C1001.7 63.1149 1058.37 59.5989 1115.08 59.2939C1171.17 58.9939 1226.12 48.6639 1281.59 41.7079C1341.32 34.2231 1401.74 34.1647 1461.48 41.5339C1536.42 50.7089 1609.06 62.6009 1684.85 61.3959C1763.67 60.1439 1842.12 51.4549 1921 51.7369" stroke="#C4A1FF" stroke-opacity="0.1" stroke-width="2" stroke-miterlimit="10"/>
<path d="M-2 26.7C136.739 25.623 275.157 33.952 413.87 27.278C532.204 21.584 651.855 20.16 770.283 24.209C827.307 26.158 883.953 31.485 941.07 31.496C997.16 31.508 1053.24 28.53 1109.33 29.138C1226.15 30.404 1342.35 17.917 1459.32 23.127C1532.57 26.389 1605.25 29.785 1678.6 29.759C1759.41 29.731 1840.17 25.945 1921 26.7" stroke="#C4A1FF" stroke-opacity="0.1" stroke-width="2" stroke-miterlimit="10"/>
<path d="M-2 1.65908C484.883 1.27641 971.769 1.25841 1458.66 1.60508C1612.77 1.71708 1766.89 1.73508 1921 1.65908" stroke="#C4A1FF" stroke-opacity="0.1" stroke-width="2" stroke-miterlimit="10"/>
</g>
<defs>
<clipPath id="clip0_2074_61">
<rect width="1920" height="1080" fill="white"/>
</clipPath>
</defs>
</svg>
