<svg width="397" height="402" viewBox="0 0 397 402" fill="none" xmlns="http://www.w3.org/2000/svg">
<rect x="0.5" y="0.5" width="395.944" height="400.344" stroke="#29222A" stroke-opacity="0.1"/>
<path d="M134.9 401.344C90.1 401.344 45.1 401.344 0.5 401.244H0V400.744C0 340.344 0 279.844 0 219.444C0 146.444 0 73.5444 0 0.544444V0.0444444H0.5C65.9 0.144444 132.4 0.0444444 196.7 0.0444444C262.2 0.0444444 329.9 -0.0555556 396.4 0.0444444H396.9V0.544444C397 65.3444 396.9 131.344 396.9 195.044C396.9 262.444 396.8 332.144 396.9 400.744V401.244H396.4C354.2 401.244 312 401.244 269.8 401.244C225.4 401.244 180.2 401.344 134.9 401.344ZM0.900002 400.244C90.5 400.344 181.6 400.344 269.7 400.244C311.7 400.244 353.8 400.244 395.8 400.244C395.7 331.844 395.8 262.344 395.8 195.044C395.8 131.444 395.9 65.6444 395.8 1.04444C329.4 0.944444 261.9 1.04444 196.6 1.04444C132.5 1.04444 66.1 1.14444 0.900002 1.04444C0.900002 73.8444 0.900002 146.644 0.900002 219.444C0.900002 279.644 0.900002 339.944 0.900002 400.244Z" fill="#29222A" fill-opacity="0.1"/>
<path d="M259.2 31.0444C238.7 31.0444 218 30.1444 197.4 27.6444C155.9 22.4444 114.1 24.2444 73.6 26.0444C49.7 27.0444 24.9 28.1444 0.400024 27.7444V26.7444C24.9 27.1444 49.7 26.0444 73.6 25.0444C114.1 23.3444 156 21.5444 197.5 26.6444C238.8 31.8444 280.6 30.0444 321 28.3444C345.6 27.3444 371.1 26.2444 396.4 26.7444V27.7444C371.2 27.2444 345.7 28.3444 321.1 29.3444C300.7 30.1444 280 31.0444 259.2 31.0444Z" fill="#29222A" fill-opacity="0.1"/>
<path d="M259.2 68.6445C238.1 68.6445 218.6 64.1445 195.1 54.2445C166 41.9445 142 38.1445 112.4 41.2445C98.2 42.7445 83.9 44.8445 70 46.9445C47.3 50.4445 23.9 53.9445 0.400024 54.4445V53.4445C23.8 53.0445 47.2 49.4445 69.9 45.9445C83.8 43.8445 98.1 41.6445 112.3 40.1445C142.1 37.1445 166.2 40.9445 195.5 53.2445C223.8 65.2445 246.2 69.1445 272.7 66.9445C289.5 65.5445 306.4 63.0445 322.7 60.6445C346.7 57.1445 371.5 53.5445 396.3 53.2445V54.2445C371.5 54.5445 346.8 58.1445 322.8 61.6445C306.4 64.0445 289.5 66.5445 272.7 67.9445C268.2 68.4445 263.7 68.6445 259.2 68.6445Z" fill="#29222A" fill-opacity="0.1"/>
<path d="M248.3 107.244C225.1 107.244 209.9 97.5444 192.3 80.9444C167.2 57.3444 149 51.5444 117.1 57.2444C102.1 59.9444 87.1 63.7444 72.6 67.4444C49.3 73.3444 25.2 79.4444 0.500023 81.0444L0.400024 80.0444C25.1 78.4444 49.1 72.3444 72.3 66.4444C86.8 62.7444 101.8 58.9444 116.8 56.2444C149.1 50.4444 167.6 56.2444 192.9 80.1444C214.3 100.344 231 109.744 263 105.044C281.4 102.344 299.8 97.9444 317.6 93.7444C343.1 87.7444 369.4 81.4444 396.3 79.9444L396.4 80.9444C369.6 82.4444 343.3 88.6444 317.9 94.6444C300.1 98.8444 281.7 103.244 263.3 105.944C257.9 106.844 252.9 107.244 248.3 107.244Z" fill="#29222A" fill-opacity="0.1"/>
<path d="M238.7 143.544C215.5 143.544 203.6 131.044 189.8 107.644C172.5 78.3444 158.4 66.7444 120.7 75.5444C105 79.2444 89.6 84.3444 74.6 89.3444C50.8 97.2444 26.3 105.444 0.400047 107.744L0.300049 106.744C26.1 104.444 50.6 96.2444 74.3 88.3444C89.3 83.3444 104.7 78.2444 120.5 74.5444C139 70.2444 151.9 70.6444 162.5 76.0444C172.4 81.0444 180.5 90.0444 190.6 107.144C207.4 135.644 220.7 147.244 254.8 140.844C274.6 137.144 294.2 131.144 313.1 125.444C339.9 117.344 367.5 108.944 396.3 106.644L396.4 107.644C367.8 109.844 340.2 118.244 313.5 126.344C294.6 132.144 275 138.044 255.1 141.744C249 143.044 243.6 143.544 238.7 143.544Z" fill="#29222A" fill-opacity="0.1"/>
<path d="M233.2 179.144C207.2 179.144 198 161.244 188.1 135.444C187.3 133.444 186.6 131.444 185.8 129.344C181.6 117.744 176.7 104.644 166.8 97.1445C153.8 87.3445 137 91.9445 122.2 95.9445L121.9 96.0445C105.9 100.344 90.4 106.544 75.3 112.544C51.5 122.044 26.9 131.844 0.400047 134.344L0.300049 133.344C26.7 130.844 51.2 121.044 74.9 111.544C90 105.544 105.5 99.3445 121.6 94.9445L121.9 94.8445C136.9 90.7445 154 86.1445 167.4 96.1445C177.6 103.844 182.5 117.044 186.8 128.844C187.6 130.944 188.3 132.944 189.1 134.844C200.9 165.244 211.5 184.544 250.6 175.744C271.2 171.144 291.4 163.644 311 156.544C338.3 146.544 366.6 136.144 396.4 133.244L396.5 134.244C366.8 137.144 338.6 147.444 311.4 157.444C291.8 164.644 271.6 172.044 250.9 176.744C244.2 178.444 238.4 179.144 233.2 179.144Z" fill="#29222A" fill-opacity="0.1"/>
<path d="M243.3 201.044C218 201.044 206.1 184.344 191.2 158.744C173.3 128.044 158.5 108.844 118.3 120.544C102.6 125.144 87.6 131.744 73 138.144C50.2 148.144 26.6 158.544 0.500023 161.044L0.400024 160.044C26.4 157.544 49.9 147.244 72.6 137.244C87.2 130.844 102.3 124.144 118 119.544C158.9 107.544 173.9 127.044 192.1 158.144C209.7 188.344 223.1 206.044 259.7 197.944C279 193.644 297.9 187.244 316.2 180.944C341.9 172.144 368.5 163.044 396.4 160.044L396.5 161.044C368.7 164.044 342.2 173.144 316.5 181.944C298.2 188.244 279.3 194.744 259.9 198.944C253.7 200.344 248.3 201.044 243.3 201.044Z" fill="#29222A" fill-opacity="0.1"/>
<path d="M263.2 216.544C234 216.544 215.9 197.944 196.8 178.444C170 151.044 148.2 132.644 110.7 144.844C95.8 149.744 81.8 156.744 68.2 163.644C47.1 174.244 25.4 185.244 0.299953 187.744L0.199951 186.744C25.1 184.244 46.7 173.344 67.7 162.744C81.3 155.844 95.2999 148.744 110.3 143.844C148.3 131.444 170.4 150.044 197.4 177.744C222.9 203.844 242.3 220.544 276.9 214.244C293.5 211.244 309.8 206.544 325.6 201.944C348.3 195.444 371.8 188.644 396.2 186.844L396.3 187.844C372 189.744 348.6 196.444 325.9 202.944C310.1 207.544 293.7 212.244 277.1 215.244C272.3 216.144 267.6 216.544 263.2 216.544Z" fill="#29222A" fill-opacity="0.1"/>
<path d="M287.2 230.044C255.9 230.044 231.3 213.644 205.5 196.344L203.6 195.044C201.9 193.844 200.1 192.744 198.4 191.544C169.1 171.844 138.9 151.444 102.7 165.844C88.6 171.444 75.8 179.444 63.4 187.144C44.4 198.944 24.7 211.144 0.600002 214.444L0.5 213.444C24.3 210.144 43.1 198.544 62.9 186.244C75.4 178.544 88.2 170.544 102.4 164.944C139 150.444 169.5 170.944 199 190.744C200.7 191.944 202.5 193.044 204.2 194.244L206.2 195.544C234.6 214.544 261.3 232.444 297.1 228.544C311.2 227.044 325.2 224.244 338.7 221.544C357.4 217.844 376.8 213.944 396.6 213.444V214.444C376.9 214.944 357.6 218.744 338.9 222.544C325.3 225.244 311.3 228.044 297.2 229.544C293.6 229.944 290.4 230.044 287.2 230.044Z" fill="#29222A" fill-opacity="0.1"/>
<path d="M310 245.844C275.5 245.844 245.9 231.944 214.6 217.344L209.1 214.744C204.8 212.744 200.4 210.644 195.8 208.344C164.2 192.944 128.3 175.444 95.1 190.144C81.8 196.044 70.1 204.444 58.7001 212.644C41.5 225.044 23.6 237.844 0.400047 241.144L0.300049 240.144C23.3 236.844 40.2001 224.644 58.2001 211.744C69.6 203.544 81.3001 195.144 94.7001 189.144C128.3 174.244 164.4 191.844 196.3 207.344C200.9 209.544 205.2 211.744 209.6 213.744L215.1 216.344C247.6 231.544 278.3 245.944 314.4 244.744C325.7 244.344 337.1 243.444 348.2 242.544C364 241.244 380.2 239.944 396.5 240.144V241.144C380.3 240.844 364 242.244 348.3 243.544C337.2 244.444 325.8 245.344 314.5 245.744C312.9 245.744 311.5 245.844 310 245.844Z" fill="#29222A" fill-opacity="0.1"/>
<path d="M344.6 267.844C337.5 267.844 330.4 267.844 323.3 267.844C287.8 267.744 254.9 254.844 223.1 242.344C219.4 240.944 215.8 239.444 212.1 238.044C206.1 235.744 199.9 233.044 193.2 230.144C160.1 215.944 122.5 199.844 91.3999 214.644C78.2999 220.844 67.3 229.644 56.5 238.244C39.6 251.744 23.6 264.544 0.299953 267.844L0.199951 266.844C23.1 263.544 39 250.844 55.9 237.444C66.7 228.844 77.8 219.944 91 213.744C122.6 198.744 162 215.644 193.7 229.244C200.3 232.044 206.6 234.744 212.6 237.044C216.3 238.444 219.9 239.944 223.6 241.344C256.8 254.444 288.1 266.744 323.4 266.844C338.2 266.844 353 266.844 367.9 266.844C377.4 266.844 386.9 266.844 396.4 266.844V267.844C386.9 267.844 377.4 267.844 367.9 267.844C360.1 267.844 352.4 267.844 344.6 267.844Z" fill="#29222A" fill-opacity="0.1"/>
<path d="M317.4 295.444C283.6 295.444 251.6 284.644 220.7 274.144C217.4 273.044 214.2 271.944 210.9 270.844C205 268.844 198.9 266.644 192.4 264.244C160.7 252.644 124.8 239.444 93.7 251.344C80.7 256.344 69 263.444 57.8 270.344C39.8 281.344 22.8 291.844 0.600002 294.444L0.5 293.444C22.5 290.844 39.4 280.444 57.3 269.444C68.6 262.544 80.3 255.344 93.4 250.344C124.8 238.344 161 251.544 192.8 263.244C199.2 265.644 205.3 267.844 211.3 269.844C214.6 270.944 217.8 272.044 221.1 273.144C252.4 283.744 284.8 294.744 319 294.444C331.5 294.344 344.2 294.144 356.5 293.944C369.6 293.744 383.2 293.544 396.5 293.444V294.444C383.2 294.544 369.6 294.744 356.5 294.944C344.2 295.144 331.5 295.244 319 295.444C318.4 295.444 317.9 295.444 317.4 295.444Z" fill="#29222A" fill-opacity="0.1"/>
<path d="M307.5 322.144C274 322.144 243.2 313.744 210.6 304.844L207.4 303.944C202.1 302.544 196.8 300.944 191.2 299.344C160.1 290.244 127.9 280.944 97.3 289.444C84.4 293.044 72.1 298.244 60.2 303.344C41.5 311.244 22.3 319.444 0.500023 321.244L0.400024 320.244C22 318.444 40.4 310.644 59.8 302.444C71.7 297.344 84 292.144 97 288.544C127.9 279.944 160.2 289.344 191.5 298.444C197.1 300.044 202.4 301.644 207.6 303.044L210.8 303.944C243.9 312.944 275.2 321.444 309.2 321.244C323.4 321.144 337.7 320.944 351.9 320.844C366.7 320.644 381.5 320.544 396.3 320.344V321.344C381.5 321.444 366.7 321.644 351.9 321.844C337.7 322.044 323.4 322.144 309.2 322.244C308.7 322.144 308.1 322.144 307.5 322.144Z" fill="#29222A" fill-opacity="0.1"/>
<path d="M341.2 348.144C294.7 348.144 249.6 346.744 203.2 338.644C200 338.044 196.8 337.544 193.5 336.944C163.3 331.544 132.1 325.944 101.4 330.444C88.3 332.344 75.4 335.344 62.8 338.144C42.7 342.744 21.9 347.444 0.400024 347.844V346.844C21.8 346.444 42.6 341.744 62.6 337.144C75.1 334.244 88.1 331.344 101.2 329.444C132.1 324.944 163.4 330.544 193.7 335.944C196.9 336.544 200.2 337.144 203.4 337.644C261.6 347.844 317.8 347.344 377.3 346.944C383.6 346.944 390 346.844 396.3 346.844V347.844C389.9 347.844 383.6 347.944 377.3 347.944C365.2 348.144 353.1 348.144 341.2 348.144Z" fill="#29222A" fill-opacity="0.1"/>
<path d="M308.2 375.044C272.2 375.044 235.8 374.444 199.9 372.044C166.3 369.744 135.9 367.944 105 369.144C91.6 369.644 78 370.744 64.9 371.744C43.8 373.344 22.1 375.044 0.400024 374.544V373.544C22 374.044 43.7 372.344 64.8 370.744C77.9 369.744 91.5 368.644 104.9 368.144C135.8 366.944 166.2 368.744 199.9 371.044C252.2 374.544 305.5 374.144 357.1 373.844C370 373.744 383.3 373.644 396.4 373.644V374.644C383.3 374.644 370 374.744 357.1 374.844C340.9 374.944 324.6 375.044 308.2 375.044Z" fill="#29222A" fill-opacity="0.1"/>
<path d="M369.4 400.744C369 375.344 370 349.644 371 324.844C372.6 285.044 374.2 243.844 369.8 203.044C365.2 160.844 366.7 118.144 368.1 76.8444C369 51.8444 369.9 26.0444 369.4 0.544434H370.4C370.8 26.0444 369.9 51.9444 369.1 76.9444C367.6 118.244 366.1 160.844 370.7 203.044C375.2 243.944 373.5 285.144 371.9 325.044C370.9 349.844 369.9 375.444 370.3 400.844L369.4 400.744Z" fill="#29222A" fill-opacity="0.1"/>
<path d="M344.1 400.744H343.1C343.4 378.244 347.1 355.844 350.6 334.244C352.6 321.844 354.7 309.044 356.1 296.344C359.4 266.944 355.9 240.744 344.5 208.544C333.6 178.144 329.9 152.844 332.1 123.944C333.3 108.144 335.2 92.2445 337 76.8445C340 51.8445 343 26.0445 343.2 0.344452H344.2C344 26.0445 341 51.9445 338 76.9445C336.2 92.3445 334.3 108.244 333.1 124.044C330.9 152.744 334.6 177.844 345.5 208.144C357 240.444 360.5 266.844 357.2 296.344C355.8 309.044 353.7 321.844 351.7 334.244C348 356.044 344.4 378.244 344.1 400.744Z" fill="#29222A" fill-opacity="0.1"/>
<path d="M317.7 400.744L316.7 400.644C318.1 377.644 324.3 355.744 330.3 334.444C333.8 322.144 337.4 309.344 340 296.444C347.1 261.644 338.1 241.044 318.9 215.244C297.9 186.944 292.2 166.644 296.3 135.044C298.6 117.544 301.9 99.9445 305.2 82.9445C310.3 56.0445 315.6 28.2445 316.8 0.344452H317.8C316.6 28.3445 311.3 56.1444 306.2 83.0444C303 100.044 299.6 117.644 297.3 135.044C293.2 166.444 298.9 186.444 319.7 214.544C339.1 240.644 348.2 261.344 341 296.544C338.4 309.444 334.8 322.244 331.3 334.544C325.2 356.044 319.1 377.944 317.7 400.744Z" fill="#29222A" fill-opacity="0.1"/>
<path d="M291.3 400.744L290.3 400.644C292.4 377.144 300.8 355.544 308.9 334.644C313.7 322.344 318.6 309.744 322.2 296.744C332.2 260.944 320.4 243.144 293.4 221.044C267.3 199.744 256.1 182.844 262.4 144.544C265.5 125.644 270.1 106.644 274.5 88.3445C281.4 59.8445 288.5 30.3445 290.3 0.444458L291.3 0.54446C289.5 30.5445 282.4 60.0445 275.5 88.6445C271.1 106.944 266.5 125.844 263.4 144.744C257.1 182.544 268.3 199.244 294 220.344C321.3 242.744 333.3 260.744 323.1 297.044C319.4 310.144 314.5 322.844 309.8 335.044C301.7 355.844 293.4 377.444 291.3 400.744Z" fill="#29222A" fill-opacity="0.1"/>
<path d="M264.9 400.744L263.9 400.644C266.3 376.544 276.4 355.244 286.1 334.744C291.9 322.644 297.9 310.044 302.3 296.944C314.8 259.744 300.1 243.144 266.8 223.944C265.4 223.144 264 222.344 262.5 221.544C252.5 215.844 242.1 210.044 234.6 201.144C221.6 185.744 225.3 167.344 228.8 149.444C232.7 129.644 238.5 109.944 244.1 90.9445C252.6 61.7445 261.5 31.5445 263.9 0.444458L264.9 0.54446C262.5 31.6445 253.6 61.9445 245.1 91.2445C239.5 110.244 233.8 129.944 229.9 149.744C226.4 167.344 222.7 185.644 235.4 200.644C242.8 209.444 253.1 215.244 263 220.844C264.4 221.644 265.9 222.444 267.3 223.244C301.1 242.744 316 259.544 303.3 297.344C298.9 310.544 292.9 323.144 287.1 335.344C277.3 355.644 267.3 376.844 264.9 400.744Z" fill="#29222A" fill-opacity="0.1"/>
<path d="M238.5 400.744L237.5 400.644C239.3 376.344 246.6 353.344 253.7 331.044C257.9 317.744 262.3 303.944 265.5 290.044C273.2 256.344 266 237.244 237.1 214.344C208.6 191.744 201.6 173.644 208.1 139.944C211.5 122.144 216 104.344 220.3 87.1445C227.4 59.0445 234.7 29.9445 237.4 0.444458L238.4 0.54446C235.6 30.1445 228.3 59.2445 221.2 87.3445C216.9 104.544 212.4 122.344 209 140.044C202.6 173.344 209.6 191.244 237.7 213.544C267 236.744 274.2 256.144 266.4 290.244C263.2 304.244 258.8 318.044 254.6 331.344C247.6 353.644 240.3 376.644 238.5 400.744Z" fill="#29222A" fill-opacity="0.1"/>
<path d="M212.1 400.744L211.1 400.644C212.4 375.044 217.1 349.544 221.7 324.944C224.5 309.944 227.4 294.344 229.4 278.944C234 244.844 229.6 223.244 212.5 196.644C196.1 171.144 191.2 150.044 195 121.644C196.8 108.444 198.9 95.0444 201 82.0444C205.3 55.3444 209.7 27.8445 211.1 0.344452L212.1 0.44445C210.7 27.9445 206.3 55.5445 202 82.2445C199.9 95.1445 197.8 108.544 196 121.844C192.2 150.344 196.9 170.544 213.4 196.144C230.6 222.944 235.1 244.644 230.5 279.044C228.4 294.544 225.5 310.044 222.8 325.144C218.1 349.844 213.4 375.244 212.1 400.744Z" fill="#29222A" fill-opacity="0.1"/>
<path d="M185.7 400.744H184.7C185 375.344 186.6 349.544 188.1 324.544C191.1 275.944 194.2 225.644 187.6 176.344C182.3 137.344 183.3 97.2444 184.1 58.5444C184.5 39.5444 185 19.8444 184.7 0.544434H185.7C186 19.8444 185.5 39.5444 185.1 58.5444C184.2 97.2444 183.3 137.244 188.6 176.244C195.2 225.544 192.1 275.944 189.1 324.644C187.6 349.544 186 375.344 185.7 400.744Z" fill="#29222A" fill-opacity="0.1"/>
<path d="M158.3 400.744C158.1 378.544 157 355.544 155.9 333.344C153.1 275.344 150.2 215.444 163 158.644C169.2 130.944 172.9 107.444 170.6 82.6445C169.4 69.5445 167 56.5445 164.6 43.8445C162 29.7445 159.3 15.1445 158.3 0.54446L159.3 0.444458C160.3 15.0445 163 29.6445 165.6 43.6445C167.9 56.3445 170.3 69.3445 171.6 82.4445C173.9 107.344 170.2 130.944 164 158.744C151.3 215.444 154.2 275.244 157 333.244C158.1 355.444 159.2 378.444 159.4 400.644L158.3 400.744Z" fill="#29222A" fill-opacity="0.1"/>
<path d="M131.9 400.744C130.9 367.744 127.2 334.444 123.7 302.244C121.8 284.544 119.8 266.344 118.2 248.344C115.1 212.244 116.6 184.444 133.5 148.944C144.4 125.944 154 100.844 149.9 73.1445C148.2 61.9445 144.7 51.4445 141.3 41.3445C137 28.5445 132.6 15.3445 131.9 0.54446L132.9 0.444458C133.6 15.0445 138 28.2445 142.3 40.9445C145.7 51.1445 149.2 61.6445 150.9 72.9445C155 100.944 145.4 126.144 134.4 149.344C117.6 184.644 116.1 212.344 119.2 248.244C120.7 266.244 122.7 284.444 124.7 302.144C128.2 334.344 131.9 367.744 132.9 400.744H131.9Z" fill="#29222A" fill-opacity="0.1"/>
<path d="M105.5 400.744C104.5 377.144 101.5 352.644 98.5 329.044C91.2 270.744 83.8 210.544 105.2 154.844C115.8 127.344 122.3 103.644 119.5 77.7444C118.2 66.0444 115.5 54.6444 112.8 43.6444C109.5 29.8444 106 15.5444 105.5 0.544434H106.5C107 15.4444 110.5 29.6444 113.8 43.4444C116.5 54.4444 119.2 65.9444 120.5 77.6444C123.3 103.744 116.8 127.544 106.1 155.244C84.8 210.744 92.2 270.844 99.5 328.944C102.4 352.644 105.5 377.144 106.5 400.744H105.5Z" fill="#29222A" fill-opacity="0.1"/>
<path d="M79.1 400.744C78.3 378.144 76.2 355.244 74.2 333.144C69.2 278.844 64 222.644 78.6 167.844C85.3 142.744 91.2 115.644 89.3 86.9444C88.4 73.9444 86.4 60.9444 84.4 48.4444C82 32.8444 79.5 16.8444 79.1 0.544434H80.1C80.5 16.7444 83 32.7444 85.4 48.2444C87.4 60.8444 89.4 73.8444 90.3 86.8444C92.3 115.644 86.3 142.944 79.6 168.044C65 222.644 70.2 278.744 75.2 332.944C77.2 355.144 79.4 378.044 80.1 400.644L79.1 400.744Z" fill="#29222A" fill-opacity="0.1"/>
<path d="M52.7 400.744C52.4 378.544 51.2 356.244 50.1 334.544C47.5 284.944 44.9 233.644 52.2 182.744C58.2 140.844 56.4 101.344 54.5 59.5445C53.6 40.3445 52.7 20.4445 52.7 0.444458H53.7C53.8 20.3445 54.7 40.2445 55.5 59.4445C57.4 101.344 59.2 140.844 53.2 182.844C45.9 233.544 48.5 284.844 51.1 334.444C52.2 356.144 53.4 378.444 53.7 400.644L52.7 400.744Z" fill="#29222A" fill-opacity="0.1"/>
<path d="M27.3 400.744H26.3C26.3 352.044 26.2 302.544 26.1 254.644C25.9 171.344 25.6 85.2444 26.3 0.544434H27.3C26.6 85.2444 26.8 171.344 27.1 254.644C27.2 302.544 27.4 352.044 27.3 400.744Z" fill="#29222A" fill-opacity="0.1"/>
</svg>
