<svg width="314" height="318" viewBox="0 0 314 318" fill="none" xmlns="http://www.w3.org/2000/svg">
<path d="M207.199 3.05176e-05C242.623 3.05176e-05 278.205 3.05176e-05 313.47 0.0791016H313.865V0.474457C313.865 48.2329 313.865 96.0705 313.865 143.829C313.865 201.55 313.865 259.193 313.865 316.914V317.309H313.47C261.758 317.23 209.176 317.309 158.334 317.309C106.543 317.309 53.0122 317.388 0.430389 317.309H0.0350342V316.914C-0.0440369 265.676 0.0350342 213.49 0.0350342 163.122C0.0350342 109.829 0.114105 54.7167 0.0350342 0.474457V0.0791016H0.430389C33.7981 0.0791016 67.1658 0.0791016 100.533 0.0791016C135.641 0.0791016 171.38 3.05176e-05 207.199 3.05176e-05ZM313.154 0.869812C242.307 0.790741 170.273 0.790741 100.613 0.869812C67.403 0.869812 34.1143 0.869812 0.904816 0.869812C0.983887 54.9539 0.904816 109.908 0.904816 163.122C0.904816 213.411 0.825745 265.439 0.904816 316.519C53.4075 316.598 106.78 316.519 158.413 316.519C209.097 316.519 261.6 316.44 313.154 316.519C313.154 258.955 313.154 201.392 313.154 143.829C313.154 96.2287 313.154 48.5492 313.154 0.869812Z" fill="#DAF5F0" fill-opacity="0.3"/>
<path d="M108.915 292.798C125.124 292.798 141.492 293.509 157.78 295.486C190.594 299.598 223.646 298.174 255.669 296.751C274.567 295.96 294.177 295.091 313.549 295.407V296.198C294.177 295.881 274.567 296.751 255.669 297.542C223.646 298.886 190.515 300.309 157.701 296.277C125.045 292.165 91.9937 293.588 60.0493 294.932C40.598 295.723 20.4351 296.593 0.430267 296.198V295.407C20.356 295.802 40.5189 294.932 59.9702 294.142C76.1006 293.509 92.4682 292.798 108.915 292.798Z" fill="#DAF5F0" fill-opacity="0.3"/>
<path d="M108.915 263.067C125.599 263.067 141.017 266.625 159.599 274.453C182.608 284.179 201.585 287.184 224.99 284.732C236.218 283.546 247.525 281.886 258.516 280.225C276.465 277.458 294.967 274.69 313.549 274.295V275.086C295.046 275.402 276.544 278.249 258.595 281.016C247.604 282.677 236.297 284.416 225.069 285.602C201.506 287.974 182.45 284.97 159.283 275.244C136.906 265.755 119.194 262.672 98.2403 264.411C84.9565 265.518 71.5936 267.495 58.7051 269.393C39.7282 272.16 20.1188 275.007 0.509338 275.244V274.453C20.1188 274.216 39.6491 271.369 58.626 268.602C71.5936 266.704 84.9565 264.728 98.2403 263.621C101.798 263.225 105.357 263.067 108.915 263.067Z" fill="#DAF5F0" fill-opacity="0.3"/>
<path d="M117.533 232.546C135.878 232.546 147.896 240.216 161.813 253.341C181.66 272.002 196.05 276.588 221.274 272.081C233.134 269.946 244.995 266.942 256.46 264.016C274.883 259.351 293.939 254.527 313.47 253.262L313.549 254.053C294.018 255.318 275.042 260.141 256.697 264.807C245.232 267.732 233.372 270.737 221.511 272.872C195.971 277.458 181.343 272.872 161.338 253.974C144.417 238.002 131.213 230.569 105.91 234.285C91.3612 236.42 76.8122 239.899 62.7377 243.22C42.5748 247.965 21.7793 252.946 0.509338 254.132L0.430267 253.341C21.6211 252.155 42.4166 247.253 62.5005 242.509C76.575 239.188 91.124 235.709 105.673 233.574C109.943 232.862 113.896 232.546 117.533 232.546Z" fill="#DAF5F0" fill-opacity="0.3"/>
<path d="M125.124 203.843C143.469 203.843 152.878 213.727 163.79 232.23C177.469 255.397 188.618 264.569 218.427 257.611C230.841 254.686 243.018 250.653 254.879 246.7C273.697 240.453 293.07 233.969 313.549 232.151L313.628 232.941C293.228 234.76 273.856 241.244 255.116 247.49C243.255 251.444 231.078 255.476 218.585 258.402C203.957 261.802 193.757 261.486 185.376 257.216C177.548 253.262 171.143 246.146 163.157 232.625C149.873 210.09 139.357 200.918 112.394 205.978C96.738 208.904 81.2402 213.648 66.2959 218.155C45.105 224.56 23.2816 231.202 0.509338 233.02L0.430267 232.23C23.0444 230.49 44.8678 223.848 65.9796 217.444C80.9239 212.857 96.4217 208.192 112.157 205.267C116.98 204.239 121.25 203.843 125.124 203.843Z" fill="#DAF5F0" fill-opacity="0.3"/>
<path d="M129.473 175.694C150.031 175.694 157.306 189.848 165.134 210.248C165.766 211.829 166.32 213.411 166.952 215.071C170.273 224.244 174.148 234.602 181.976 240.532C192.255 248.281 205.539 244.644 217.241 241.481L217.478 241.402C230.13 238.002 242.386 233.099 254.325 228.355C273.144 220.843 292.595 213.095 313.549 211.118L313.628 211.909C292.753 213.885 273.381 221.634 254.641 229.146C242.702 233.89 230.446 238.792 217.716 242.272L217.478 242.351C205.618 245.593 192.097 249.23 181.501 241.323C173.436 235.234 169.562 224.797 166.162 215.467C165.529 213.806 164.976 212.225 164.343 210.722C155.013 186.685 146.631 171.425 115.715 178.383C99.4263 182.02 83.4541 187.95 67.9563 193.564C46.3701 201.471 23.9933 209.695 0.430267 211.988L0.351196 211.197C23.8351 208.904 46.1329 200.76 67.6401 192.853C83.1379 187.16 99.1101 181.308 115.478 177.592C120.775 176.248 125.361 175.694 129.473 175.694Z" fill="#DAF5F0" fill-opacity="0.3"/>
<path d="M121.487 158.378C141.492 158.378 150.901 171.583 162.683 191.825C176.836 216.099 188.539 231.281 220.325 222.03C232.739 218.392 244.599 213.174 256.144 208.113C274.172 200.206 292.832 191.983 313.47 190.006L313.549 190.797C292.991 192.774 274.409 200.918 256.46 208.825C244.916 213.885 232.976 219.183 220.562 222.82C188.222 232.309 176.362 216.89 161.971 192.299C148.055 168.42 137.459 154.424 108.519 160.829C93.2589 164.229 78.3146 169.29 63.8447 174.271C43.5236 181.229 22.4909 188.425 0.430237 190.797L0.351166 190.006C22.3327 187.634 43.2864 180.439 63.6075 173.48C78.0773 168.499 93.0216 163.359 108.361 160.038C113.264 158.931 117.533 158.378 121.487 158.378Z" fill="#DAF5F0" fill-opacity="0.3"/>
<path d="M105.752 146.122C128.841 146.122 143.152 160.829 158.255 176.248C179.446 197.913 196.683 212.462 226.334 202.815C238.116 198.941 249.186 193.406 259.939 187.95C276.623 179.569 293.781 170.871 313.628 168.894L313.707 169.685C294.019 171.662 276.939 180.28 260.335 188.662C249.581 194.118 238.511 199.732 226.651 203.606C196.604 213.411 179.129 198.704 157.78 176.801C137.617 156.164 122.278 142.959 94.9194 147.941C81.7937 150.313 68.9052 154.029 56.4121 157.666C38.4631 162.806 19.8816 168.183 0.58844 169.606L0.509369 168.815C19.7235 167.313 38.2259 162.015 56.1749 156.876C68.668 153.238 81.6355 149.522 94.7612 147.15C98.5566 146.438 102.273 146.122 105.752 146.122Z" fill="#DAF5F0" fill-opacity="0.3"/>
<path d="M86.7753 135.448C111.524 135.448 130.976 148.415 151.376 162.094L152.878 163.122C154.222 164.071 155.646 164.941 156.99 165.89C180.157 181.467 204.037 197.597 232.66 186.211C243.809 181.783 253.93 175.457 263.735 169.369C278.758 160.038 294.335 150.392 313.391 147.783L313.47 148.573C294.651 151.183 279.786 160.355 264.13 170.08C254.246 176.169 244.125 182.494 232.897 186.922C203.958 198.388 179.841 182.178 156.515 166.522C155.171 165.573 153.748 164.704 152.404 163.755L150.822 162.727C128.366 147.703 107.255 133.55 78.9473 136.634C67.7984 137.82 56.7286 140.034 46.0541 142.169C31.2679 145.094 15.9283 148.178 0.272308 148.573V147.783C15.8492 147.387 31.1098 144.383 45.8959 141.378C56.6495 139.243 67.7193 137.029 78.8683 135.843C81.7148 135.527 84.245 135.448 86.7753 135.448Z" fill="#DAF5F0" fill-opacity="0.3"/>
<path d="M68.7471 122.954C96.0263 122.954 119.431 133.945 144.18 145.489L148.529 147.545C151.929 149.127 155.408 150.787 159.045 152.606C184.032 164.783 212.418 178.62 238.669 166.997C249.186 162.331 258.437 155.69 267.451 149.206C281.051 139.401 295.205 129.28 313.549 126.671L313.628 127.461C295.442 130.071 282.079 139.717 267.846 149.917C258.832 156.401 249.581 163.043 238.986 167.787C212.418 179.569 183.873 165.652 158.65 153.396C155.013 151.657 151.613 149.917 148.134 148.336L143.785 146.28C118.087 134.261 93.8124 122.875 65.268 123.824C56.333 124.14 47.319 124.852 38.5422 125.564C26.0491 126.592 13.2397 127.62 0.351196 127.461V126.671C13.1606 126.908 26.0491 125.801 38.4631 124.773C47.2399 124.061 56.2539 123.35 65.1889 123.033C66.454 123.033 67.561 122.954 68.7471 122.954Z" fill="#DAF5F0" fill-opacity="0.3"/>
<path d="M41.3887 105.559C47.0027 105.559 52.6167 105.559 58.2307 105.559C86.3007 105.638 112.315 115.838 137.459 125.722C140.385 126.829 143.231 128.015 146.157 129.122C150.901 130.94 155.804 133.075 161.101 135.368C187.274 146.596 217.004 159.327 241.595 147.624C251.953 142.722 260.651 135.764 269.19 128.964C282.553 118.289 295.205 108.168 313.628 105.559L313.707 106.35C295.6 108.959 283.028 119.001 269.665 129.596C261.125 136.396 252.348 143.434 241.911 148.336C216.925 160.197 185.771 146.834 160.706 136.08C155.487 133.866 150.506 131.731 145.762 129.913C142.836 128.806 139.989 127.62 137.064 126.513C110.813 116.154 86.0635 106.429 58.1517 106.35C46.4492 106.35 34.7468 106.35 22.9654 106.35C15.4537 106.35 7.94199 106.35 0.430298 106.35V105.559C7.94199 105.559 15.4537 105.559 22.9654 105.559C29.1328 105.559 35.2213 105.559 41.3887 105.559Z" fill="#DAF5F0" fill-opacity="0.3"/>
<path d="M62.8961 83.7356C89.6218 83.7356 114.924 92.2752 139.357 100.578C141.966 101.447 144.497 102.317 147.106 103.187C151.771 104.768 156.594 106.508 161.734 108.406C186.799 117.578 215.186 128.015 239.776 118.606C250.056 114.652 259.307 109.038 268.163 103.582C282.395 94.8845 295.837 86.5821 313.391 84.5263L313.47 85.317C296.074 87.3728 282.712 95.5961 268.558 104.294C259.623 109.75 250.372 115.443 240.014 119.396C215.186 128.885 186.562 118.447 161.418 109.196C156.357 107.299 151.534 105.559 146.79 103.978C144.18 103.108 141.65 102.238 139.041 101.368C114.292 92.9868 88.673 84.2891 61.6309 84.5263C51.7471 84.6053 41.7052 84.7635 31.9796 84.9216C21.6213 85.0798 10.8678 85.2379 0.35141 85.317V84.5263C10.8678 84.4472 21.6213 84.2891 31.9796 84.1309C41.7052 83.9728 51.7471 83.8937 61.6309 83.7356C62.1054 83.7356 62.5007 83.7356 62.8961 83.7356Z" fill="#DAF5F0" fill-opacity="0.3"/>
<path d="M70.7238 62.6238C97.2124 62.6238 121.566 69.2657 147.343 76.3029L149.873 77.0146C154.064 78.1216 158.255 79.3867 162.683 80.6518C187.273 87.8472 212.734 95.2008 236.93 88.4798C247.13 85.6332 256.855 81.5216 266.265 77.489C281.051 71.2424 296.232 64.7587 313.47 63.3354L313.549 64.1261C296.47 65.5494 281.921 71.7169 266.581 78.2006C257.172 82.2332 247.446 86.3449 237.167 89.1914C212.734 95.9914 187.194 88.5588 162.445 81.3634C158.017 80.0983 153.827 78.8332 149.715 77.7262L147.185 77.0146C121.013 69.8982 96.2635 63.1772 69.3796 63.3354C58.1516 63.4145 46.8445 63.5726 35.6165 63.6517C23.9142 63.8098 12.2117 63.8889 0.509338 64.047V63.2563C12.2117 63.1772 23.9142 63.0191 35.6165 62.861C46.8445 62.7028 58.1516 62.6238 69.3796 62.5447C69.775 62.6238 70.2494 62.6238 70.7238 62.6238Z" fill="#DAF5F0" fill-opacity="0.3"/>
<path d="M44.0771 42.0654C80.8448 42.0654 116.506 43.1724 153.194 49.5771C155.724 50.0515 158.255 50.4469 160.864 50.9213C184.743 55.1911 209.413 59.619 233.688 56.0609C244.046 54.5585 254.246 52.1864 264.209 49.9724C280.102 46.3352 296.549 42.6189 313.549 42.3026V43.0933C296.628 43.4096 280.181 47.1259 264.367 50.7632C254.483 53.0562 244.204 55.3492 233.846 56.8516C209.413 60.4097 184.664 55.9818 160.706 51.712C158.176 51.2376 155.566 50.7632 153.036 50.3678C107.017 42.3026 62.5795 42.698 15.5327 43.0143C10.5513 43.0143 5.49075 43.0933 0.509338 43.0933V42.3026C5.56982 42.3026 10.5513 42.2236 15.5327 42.2236C25.1002 42.0654 34.6677 42.0654 44.0771 42.0654Z" fill="#DAF5F0" fill-opacity="0.3"/>
<path d="M70.1703 20.7956C98.6357 20.7956 127.417 21.27 155.803 23.1677C182.371 24.9863 206.409 26.4095 230.841 25.4607C241.437 25.0653 252.19 24.1956 262.548 23.4049C279.232 22.1397 296.391 20.7956 313.549 21.1909V21.9816C296.47 21.5863 279.311 22.9304 262.628 24.1956C252.269 24.9863 241.516 25.8561 230.92 26.2514C206.488 27.2002 182.45 25.777 155.803 23.9584C114.45 21.1909 72.3052 21.5072 31.5049 21.7444C21.3048 21.8235 10.7885 21.9025 0.430267 21.9025V21.1118C10.7885 21.1118 21.3048 21.0328 31.5049 20.9537C44.3143 20.8746 57.2028 20.7956 70.1703 20.7956Z" fill="#DAF5F0" fill-opacity="0.3"/>
<path d="M21.7794 0.474457C22.0957 20.5583 21.305 40.8794 20.5143 60.4889C19.2491 91.9588 17.984 124.536 21.4631 156.797C25.1004 190.164 23.9143 223.927 22.8073 256.583C22.0957 276.351 21.384 296.751 21.7794 316.914H20.9887C20.6724 296.751 21.384 276.272 22.0166 256.504C23.2027 223.848 24.3887 190.164 20.7515 156.797C17.1933 124.457 18.5375 91.8798 19.8026 60.3307C20.5933 40.7213 21.3841 20.4792 21.0678 0.395386L21.7794 0.474457Z" fill="#DAF5F0" fill-opacity="0.3"/>
<path d="M41.7842 0.474487H42.5749C42.3377 18.2653 39.4121 35.9771 36.6447 53.0562C35.0632 62.861 33.4028 72.982 32.2958 83.0239C29.6865 106.271 32.4539 126.987 41.4679 152.448C50.0866 176.485 53.0122 196.49 51.2727 219.341C50.3238 231.834 48.8215 244.406 47.3982 256.583C45.0261 276.351 42.654 296.751 42.4959 317.072H41.7052C41.8633 296.751 44.2354 276.272 46.6075 256.504C48.0308 244.327 49.5331 231.755 50.482 219.262C52.2215 196.569 49.2959 176.722 40.6772 152.764C31.5842 127.224 28.8167 106.35 31.426 83.0239C32.533 72.982 34.1935 62.861 35.7749 53.0562C38.7005 35.8189 41.547 18.2653 41.7842 0.474487Z" fill="#DAF5F0" fill-opacity="0.3"/>
<path d="M62.6587 0.474487L63.4494 0.553558C62.3424 18.7397 57.44 36.0562 52.6958 52.8981C49.9284 62.6238 47.0818 72.7448 45.026 82.9449C39.412 110.461 46.5283 126.75 61.7098 147.15C78.3146 169.527 82.8216 185.578 79.5797 210.564C77.7611 224.402 75.1518 238.318 72.5425 251.76C68.5099 273.03 64.3192 295.012 63.3703 317.072H62.5796C63.5285 294.932 67.7192 272.951 71.7518 251.681C74.282 238.239 76.9704 224.323 78.789 210.564C82.0309 185.736 77.5239 169.922 61.0773 147.703C45.7376 127.066 38.5422 110.699 44.2353 82.8658C46.2911 72.6657 49.1377 62.5447 51.9051 52.8191C56.7284 35.8189 61.5517 18.5025 62.6587 0.474487Z" fill="#DAF5F0" fill-opacity="0.3"/>
<path d="M83.5331 0.474426L84.3239 0.553497C82.6634 19.135 76.0215 36.2142 69.6168 52.7399C65.8214 62.4656 61.9469 72.4284 59.1004 82.7076C51.1934 111.015 60.5237 125.089 81.8727 142.564C102.51 159.406 111.366 172.769 106.384 203.053C103.933 217.997 100.296 233.02 96.817 247.49C91.3611 270.025 85.7471 293.351 84.3239 316.993L83.5331 316.914C84.9564 293.193 90.5704 269.867 96.0263 247.253C99.5054 232.783 103.143 217.839 105.594 202.895C110.575 173.006 101.719 159.801 81.3982 143.117C59.812 125.406 50.3236 111.173 58.3888 82.4704C61.3144 72.1122 65.1888 62.0702 68.9051 52.4236C75.3098 35.977 81.8727 18.8978 83.5331 0.474426Z" fill="#DAF5F0" fill-opacity="0.3"/>
<path d="M104.408 0.474426L105.199 0.553497C103.301 19.6095 95.3148 36.4514 87.645 52.6609C83.0589 62.2284 78.3147 72.1912 74.8356 82.5495C64.9518 111.964 76.5752 125.089 102.906 140.271C104.013 140.903 105.12 141.536 106.306 142.169C114.213 146.676 122.436 151.262 128.366 158.299C138.645 170.476 135.72 185.025 132.952 199.178C129.869 214.834 125.282 230.411 120.855 245.434C114.134 268.523 107.096 292.402 105.199 316.993L104.408 316.914C106.306 292.323 113.343 268.365 120.064 245.197C124.492 230.174 128.999 214.597 132.083 198.941C134.85 185.025 137.776 170.555 127.734 158.694C121.882 151.736 113.738 147.15 105.91 142.722C104.803 142.089 103.617 141.457 102.51 140.824C75.7845 125.406 64.003 112.122 74.0449 82.2332C77.524 71.7959 82.2682 61.833 86.8543 52.1864C94.6032 36.1352 102.51 19.3723 104.408 0.474426Z" fill="#DAF5F0" fill-opacity="0.3"/>
<path d="M125.283 0.474426L126.073 0.553497C124.65 19.7676 118.878 37.9538 113.264 55.5865C109.943 66.1028 106.464 77.0145 103.934 88.0053C97.8452 114.652 103.538 129.754 126.39 147.862C148.925 165.731 154.46 180.043 149.32 206.69C146.632 220.764 143.073 234.839 139.673 248.439C134.059 270.658 128.287 293.667 126.152 316.993L125.362 316.914C127.576 293.509 133.348 270.5 138.962 248.281C142.362 234.681 145.92 220.606 148.608 206.611C153.669 180.28 148.134 166.127 125.915 148.494C102.748 130.15 97.0545 114.81 103.222 87.8472C105.752 76.7773 109.231 65.8656 112.552 55.3492C118.087 37.7166 123.859 19.5304 125.283 0.474426Z" fill="#DAF5F0" fill-opacity="0.3"/>
<path d="M146.157 0.474487L146.948 0.553558C145.92 20.7956 142.203 40.9585 138.566 60.4098C136.352 72.2704 134.059 84.6053 132.478 96.7822C128.841 123.745 132.32 140.824 145.841 161.857C158.808 182.02 162.683 198.704 159.678 221.16C158.255 231.597 156.594 242.193 154.934 252.472C151.534 273.583 148.055 295.328 146.948 317.072L146.157 316.993C147.264 295.249 150.743 273.425 154.143 252.314C155.804 242.113 157.464 231.518 158.887 221.002C161.892 198.467 158.176 182.494 145.129 162.252C131.529 141.062 127.971 123.903 131.608 96.7031C133.269 84.4472 135.562 72.1913 137.696 60.2517C141.413 40.7213 145.129 20.6374 146.157 0.474487Z" fill="#DAF5F0" fill-opacity="0.3"/>
<path d="M167.032 0.474457H167.822C167.585 20.5583 166.32 40.9585 165.134 60.7261C162.762 99.1543 160.311 138.927 165.529 177.908C169.72 208.746 168.929 240.453 168.297 271.053C167.981 286.077 167.585 301.653 167.822 316.914H167.032C166.794 301.653 167.19 286.077 167.506 271.053C168.218 240.453 168.929 208.825 164.739 177.987C159.52 139.006 161.971 99.1543 164.343 60.647C165.529 40.9585 166.794 20.5583 167.032 0.474457Z" fill="#DAF5F0" fill-opacity="0.3"/>
<path d="M188.697 0.474426C188.855 18.028 189.725 36.2142 190.595 53.7678C192.808 99.6286 195.102 146.992 184.981 191.904C180.078 213.806 177.153 232.388 178.971 251.997C179.92 262.355 181.818 272.635 183.715 282.677C185.771 293.825 187.906 305.37 188.697 316.914L187.906 316.993C187.115 305.449 184.981 293.904 182.925 282.835C181.106 272.793 179.208 262.514 178.18 252.155C176.362 232.467 179.287 213.806 184.19 191.825C194.232 146.992 191.939 99.7077 189.725 53.8469C188.855 36.2933 187.985 18.1071 187.827 0.553497L188.697 0.474426Z" fill="#DAF5F0" fill-opacity="0.3"/>
<path d="M209.571 0.474426C210.362 26.5676 213.288 52.8981 216.055 78.3587C217.557 92.3542 219.139 106.745 220.404 120.978C222.855 149.522 221.669 171.504 208.306 199.574C199.688 217.76 192.097 237.606 195.339 259.509C196.683 268.365 199.45 276.667 202.139 284.653C205.539 294.774 209.018 305.212 209.571 316.914L208.781 316.993C208.227 305.449 204.748 295.011 201.348 284.97C198.66 276.904 195.892 268.602 194.548 259.667C191.306 237.527 198.897 217.602 207.595 199.257C220.878 171.345 222.064 149.443 219.613 121.057C218.427 106.824 216.846 92.4332 215.264 78.4378C212.497 52.9771 209.571 26.5676 208.781 0.474426H209.571Z" fill="#DAF5F0" fill-opacity="0.3"/>
<path d="M230.446 0.474457C231.237 19.1351 233.609 38.5073 235.981 57.1679C241.753 103.266 247.604 150.866 230.683 194.908C222.302 216.653 217.162 235.392 219.376 255.872C220.404 265.123 222.539 274.137 224.674 282.835C227.283 293.746 230.051 305.053 230.446 316.914H229.655C229.26 305.133 226.492 293.905 223.883 282.993C221.748 274.295 219.613 265.202 218.585 255.951C216.371 235.313 221.511 216.495 229.972 194.592C246.814 150.708 240.962 103.187 235.19 57.247C232.897 38.5073 230.446 19.1351 229.655 0.474457H230.446Z" fill="#DAF5F0" fill-opacity="0.3"/>
<path d="M251.321 0.474457C251.953 18.3444 253.614 36.4515 255.195 53.926C259.149 96.8612 263.26 141.299 251.716 184.629C246.418 204.476 241.753 225.904 243.255 248.597C243.967 258.876 245.548 269.156 247.13 279.039C249.028 291.374 251.004 304.026 251.321 316.914H250.53C250.214 304.105 248.237 291.453 246.339 279.197C244.758 269.235 243.176 258.955 242.465 248.676C240.883 225.904 245.627 204.318 250.925 184.471C262.469 141.299 258.358 96.9403 254.404 54.0842C252.823 36.5305 251.083 18.4234 250.53 0.553528L251.321 0.474457Z" fill="#DAF5F0" fill-opacity="0.3"/>
<path d="M272.195 0.474426C272.432 18.028 273.381 35.6607 274.251 52.819C276.307 92.0379 278.363 132.601 272.591 172.848C267.846 205.978 269.27 237.211 270.772 270.262C271.484 285.444 272.195 301.179 272.195 316.993H271.405C271.325 301.258 270.614 285.523 269.981 270.342C268.479 237.211 267.056 205.978 271.8 172.769C277.572 132.68 275.516 92.117 273.46 52.8981C272.591 35.7398 271.642 18.1071 271.405 0.553497L272.195 0.474426Z" fill="#DAF5F0" fill-opacity="0.3"/>
<path d="M292.279 0.474457H293.07C293.07 38.9817 293.149 78.1216 293.228 115.996C293.386 181.862 293.623 249.941 293.07 316.914H292.279C292.833 249.941 292.674 181.862 292.437 115.996C292.358 78.1216 292.2 38.9817 292.279 0.474457Z" fill="#DAF5F0" fill-opacity="0.3"/>
</svg>
