<?xml version="1.0" encoding="UTF-8"?>
<svg xmlns="http://www.w3.org/2000/svg" width="20" height="24" viewBox="0 0 20 24" fill="none">
  <path d="M4.34346 19.1944C7.21432 17.5743 7.21432 14.4275 4.34346 12.8073C7.21432 13.7578 7.75762 13.2145 6.80593 10.3448C8.42611 13.2157 11.5729 13.2157 13.1931 10.3448C12.2426 13.2157 12.7859 13.759 15.6567 12.8073C12.7859 14.4275 12.7859 17.5743 15.6567 19.1944C12.7859 18.244 12.2426 18.7873 13.1931 21.6569C11.5729 18.7861 8.42611 18.7861 6.80593 21.6569C7.7564 18.7861 7.2131 18.2428 4.34346 19.1944Z" fill="#9E66FF"></path>
  <path d="M2.00002 16C6.05957 16 10 12.0596 10 8C10 12.0596 13.9405 16 18 16C13.9405 16 10 19.9404 10 24C10 19.9404 6.05957 16 2.00002 16Z" fill="#9E66FF"></path>
</svg>
