<svg width="454" height="107" viewBox="0 0 454 107" fill="none" xmlns="http://www.w3.org/2000/svg">
<mask id="path-1-outside-1_2071_71" maskUnits="userSpaceOnUse" x="154.822" y="63.4852" width="295" height="41" fill="black">
<rect fill="white" x="154.822" y="63.4852" width="295" height="41"/>
<path d="M176.922 102.661C172.734 102.661 169.054 101.86 165.881 100.257C162.708 98.6538 160.238 96.4293 158.472 93.5833C156.705 90.7045 155.822 87.3678 155.822 83.5731C155.822 79.7784 156.705 76.4581 158.472 73.6121C160.238 70.7333 162.708 68.4925 165.881 66.8896C169.054 65.2866 172.734 64.4852 176.922 64.4852C181.109 64.4852 184.789 65.2866 187.962 66.8896C191.135 68.4925 193.605 70.7333 195.372 73.6121C197.138 76.4581 198.021 79.7784 198.021 83.5731C198.021 87.3678 197.138 90.7045 195.372 93.5833C193.605 96.4293 191.135 98.6538 187.962 100.257C184.789 101.86 181.109 102.661 176.922 102.661ZM202.057 90.0012H208.632C208.828 91.4733 209.434 92.7655 210.448 93.8777C211.495 94.9899 212.869 95.8568 214.57 96.4784C216.271 97.0672 218.233 97.3616 220.458 97.3616C223.762 97.3616 226.379 96.8546 228.309 95.8405C230.239 94.7936 231.204 93.387 231.204 91.6205C231.204 90.1811 230.648 89.1016 229.536 88.3819C228.423 87.6622 226.412 87.1225 223.5 86.7626L215.551 85.7322C211.102 85.1434 207.863 84.0475 205.835 82.4445C203.84 80.8089 202.842 78.5026 202.842 75.5258C202.842 73.2686 203.513 71.3222 204.854 69.6865C206.228 68.0182 208.158 66.7424 210.644 65.8591C213.13 64.9431 216.042 64.4852 219.378 64.4852C222.682 64.4852 225.61 64.9759 228.162 65.9573C230.713 66.9386 232.742 68.3126 234.246 70.0791C235.784 71.8129 236.618 73.8574 236.749 76.2127H230.174C230.01 74.9042 229.454 73.7756 228.505 72.827C227.589 71.8783 226.346 71.1422 224.776 70.6188C223.206 70.0627 221.358 69.7847 219.231 69.7847C216.222 69.7847 213.817 70.2754 212.018 71.2567C210.219 72.2381 209.319 73.5794 209.319 75.2804C209.319 76.5889 209.843 77.603 210.889 78.3227C211.969 79.0097 213.834 79.5331 216.483 79.8929L224.531 81.0215C227.835 81.4795 230.435 82.1011 232.333 82.8862C234.263 83.6386 235.637 84.669 236.455 85.9775C237.272 87.2533 237.681 88.9053 237.681 90.9335C237.681 93.2889 236.962 95.3498 235.522 97.1163C234.083 98.8828 232.055 100.257 229.438 101.238C226.853 102.187 223.827 102.661 220.36 102.661C216.827 102.661 213.703 102.138 210.988 101.091C208.305 100.011 206.179 98.5229 204.609 96.6256C203.038 94.7282 202.188 92.5201 202.057 90.0012ZM266.03 83.7203L266.668 82.2973C269.58 82.33 271.951 82.7717 273.783 83.6222C275.648 84.4727 277.005 85.6177 277.856 87.0571C278.739 88.4964 279.181 90.1157 279.181 91.9149C279.181 93.8777 278.706 95.6115 277.758 97.1163C276.842 98.6211 275.484 99.8151 273.685 100.698C271.886 101.549 269.645 101.974 266.963 101.974H242.428L245.323 83.0824L242.428 65.1721H266.079C269.481 65.1721 272.098 65.9736 273.93 67.5765C275.795 69.1468 276.727 71.3222 276.727 74.1028C276.727 75.5748 276.367 77.0142 275.648 78.4209C274.961 79.7948 273.832 80.9725 272.262 81.9538C270.725 82.9025 268.647 83.4914 266.03 83.7203ZM248.954 100.159L246.452 96.7728H266.226C268.255 96.7728 269.825 96.3148 270.937 95.3988C272.082 94.4502 272.655 93.1089 272.655 91.3752C272.655 89.5432 271.984 88.1202 270.643 87.1061C269.334 86.092 267.388 85.585 264.803 85.585H248.856V80.5799H264.166C265.899 80.5799 267.339 80.1056 268.484 79.1569C269.629 78.1755 270.201 76.7852 270.201 74.986C270.201 73.6448 269.727 72.5489 268.778 71.6984C267.829 70.8151 266.455 70.3735 264.656 70.3735H246.452L248.954 66.9877L251.555 83.0824L248.954 100.159ZM304.387 102.661C300.2 102.661 296.519 101.86 293.346 100.257C290.173 98.6538 287.703 96.4293 285.937 93.5833C284.17 90.7045 283.287 87.3678 283.287 83.5731C283.287 79.7784 284.17 76.4581 285.937 73.6121C287.703 70.7333 290.173 68.4925 293.346 66.8896C296.519 65.2866 300.2 64.4852 304.387 64.4852C308.574 64.4852 312.254 65.2866 315.427 66.8896C318.601 68.4925 321.07 70.7333 322.837 73.6121C324.603 76.4581 325.487 79.7784 325.487 83.5731C325.487 87.3678 324.603 90.7045 322.837 93.5833C321.07 96.4293 318.601 98.6538 315.427 100.257C312.254 101.86 308.574 102.661 304.387 102.661ZM336.294 81.7576H351.26C353.419 81.7576 355.12 81.2669 356.363 80.2855C357.639 79.3041 358.277 77.9629 358.277 76.2618C358.277 74.528 357.639 73.1868 356.363 72.2381C355.12 71.2567 353.419 70.766 351.26 70.766H335.361L338.257 67.1349V101.974H331.779V65.1721H351.849C354.433 65.1721 356.69 65.6465 358.62 66.5952C360.583 67.5111 362.104 68.8033 363.184 70.4716C364.296 72.1073 364.852 74.0373 364.852 76.2618C364.852 78.4209 364.296 80.3346 363.184 82.0029C362.104 83.6386 360.583 84.9307 358.62 85.8794C356.69 86.7954 354.433 87.2533 351.849 87.2533H336.294V81.7576ZM343.556 84.7508H351.162L365.784 101.974H358.031L343.556 84.7508ZM405.655 98.0486L403.006 98.343V65.1721H409.286V101.974H401.043L375.232 68.8033L377.833 68.5089V101.974H371.552V65.1721H379.992L405.655 98.0486ZM446.899 80.8743V86.2719H421.187V80.8743H446.899ZM425.456 83.5731L422.855 100.011L419.764 96.3802H448.322V101.974H416.231L419.175 83.5731L416.231 65.1721H448.077V70.766H419.764L422.855 67.1349L425.456 83.5731Z"/>
</mask>
<path d="M176.922 102.661C172.734 102.661 169.054 101.86 165.881 100.257C162.708 98.6538 160.238 96.4293 158.472 93.5833C156.705 90.7045 155.822 87.3678 155.822 83.5731C155.822 79.7784 156.705 76.4581 158.472 73.6121C160.238 70.7333 162.708 68.4925 165.881 66.8896C169.054 65.2866 172.734 64.4852 176.922 64.4852C181.109 64.4852 184.789 65.2866 187.962 66.8896C191.135 68.4925 193.605 70.7333 195.372 73.6121C197.138 76.4581 198.021 79.7784 198.021 83.5731C198.021 87.3678 197.138 90.7045 195.372 93.5833C193.605 96.4293 191.135 98.6538 187.962 100.257C184.789 101.86 181.109 102.661 176.922 102.661ZM202.057 90.0012H208.632C208.828 91.4733 209.434 92.7655 210.448 93.8777C211.495 94.9899 212.869 95.8568 214.57 96.4784C216.271 97.0672 218.233 97.3616 220.458 97.3616C223.762 97.3616 226.379 96.8546 228.309 95.8405C230.239 94.7936 231.204 93.387 231.204 91.6205C231.204 90.1811 230.648 89.1016 229.536 88.3819C228.423 87.6622 226.412 87.1225 223.5 86.7626L215.551 85.7322C211.102 85.1434 207.863 84.0475 205.835 82.4445C203.84 80.8089 202.842 78.5026 202.842 75.5258C202.842 73.2686 203.513 71.3222 204.854 69.6865C206.228 68.0182 208.158 66.7424 210.644 65.8591C213.13 64.9431 216.042 64.4852 219.378 64.4852C222.682 64.4852 225.61 64.9759 228.162 65.9573C230.713 66.9386 232.742 68.3126 234.246 70.0791C235.784 71.8129 236.618 73.8574 236.749 76.2127H230.174C230.01 74.9042 229.454 73.7756 228.505 72.827C227.589 71.8783 226.346 71.1422 224.776 70.6188C223.206 70.0627 221.358 69.7847 219.231 69.7847C216.222 69.7847 213.817 70.2754 212.018 71.2567C210.219 72.2381 209.319 73.5794 209.319 75.2804C209.319 76.5889 209.843 77.603 210.889 78.3227C211.969 79.0097 213.834 79.5331 216.483 79.8929L224.531 81.0215C227.835 81.4795 230.435 82.1011 232.333 82.8862C234.263 83.6386 235.637 84.669 236.455 85.9775C237.272 87.2533 237.681 88.9053 237.681 90.9335C237.681 93.2889 236.962 95.3498 235.522 97.1163C234.083 98.8828 232.055 100.257 229.438 101.238C226.853 102.187 223.827 102.661 220.36 102.661C216.827 102.661 213.703 102.138 210.988 101.091C208.305 100.011 206.179 98.5229 204.609 96.6256C203.038 94.7282 202.188 92.5201 202.057 90.0012ZM266.03 83.7203L266.668 82.2973C269.58 82.33 271.951 82.7717 273.783 83.6222C275.648 84.4727 277.005 85.6177 277.856 87.0571C278.739 88.4964 279.181 90.1157 279.181 91.9149C279.181 93.8777 278.706 95.6115 277.758 97.1163C276.842 98.6211 275.484 99.8151 273.685 100.698C271.886 101.549 269.645 101.974 266.963 101.974H242.428L245.323 83.0824L242.428 65.1721H266.079C269.481 65.1721 272.098 65.9736 273.93 67.5765C275.795 69.1468 276.727 71.3222 276.727 74.1028C276.727 75.5748 276.367 77.0142 275.648 78.4209C274.961 79.7948 273.832 80.9725 272.262 81.9538C270.725 82.9025 268.647 83.4914 266.03 83.7203ZM248.954 100.159L246.452 96.7728H266.226C268.255 96.7728 269.825 96.3148 270.937 95.3988C272.082 94.4502 272.655 93.1089 272.655 91.3752C272.655 89.5432 271.984 88.1202 270.643 87.1061C269.334 86.092 267.388 85.585 264.803 85.585H248.856V80.5799H264.166C265.899 80.5799 267.339 80.1056 268.484 79.1569C269.629 78.1755 270.201 76.7852 270.201 74.986C270.201 73.6448 269.727 72.5489 268.778 71.6984C267.829 70.8151 266.455 70.3735 264.656 70.3735H246.452L248.954 66.9877L251.555 83.0824L248.954 100.159ZM304.387 102.661C300.2 102.661 296.519 101.86 293.346 100.257C290.173 98.6538 287.703 96.4293 285.937 93.5833C284.17 90.7045 283.287 87.3678 283.287 83.5731C283.287 79.7784 284.17 76.4581 285.937 73.6121C287.703 70.7333 290.173 68.4925 293.346 66.8896C296.519 65.2866 300.2 64.4852 304.387 64.4852C308.574 64.4852 312.254 65.2866 315.427 66.8896C318.601 68.4925 321.07 70.7333 322.837 73.6121C324.603 76.4581 325.487 79.7784 325.487 83.5731C325.487 87.3678 324.603 90.7045 322.837 93.5833C321.07 96.4293 318.601 98.6538 315.427 100.257C312.254 101.86 308.574 102.661 304.387 102.661ZM336.294 81.7576H351.26C353.419 81.7576 355.12 81.2669 356.363 80.2855C357.639 79.3041 358.277 77.9629 358.277 76.2618C358.277 74.528 357.639 73.1868 356.363 72.2381C355.12 71.2567 353.419 70.766 351.26 70.766H335.361L338.257 67.1349V101.974H331.779V65.1721H351.849C354.433 65.1721 356.69 65.6465 358.62 66.5952C360.583 67.5111 362.104 68.8033 363.184 70.4716C364.296 72.1073 364.852 74.0373 364.852 76.2618C364.852 78.4209 364.296 80.3346 363.184 82.0029C362.104 83.6386 360.583 84.9307 358.62 85.8794C356.69 86.7954 354.433 87.2533 351.849 87.2533H336.294V81.7576ZM343.556 84.7508H351.162L365.784 101.974H358.031L343.556 84.7508ZM405.655 98.0486L403.006 98.343V65.1721H409.286V101.974H401.043L375.232 68.8033L377.833 68.5089V101.974H371.552V65.1721H379.992L405.655 98.0486ZM446.899 80.8743V86.2719H421.187V80.8743H446.899ZM425.456 83.5731L422.855 100.011L419.764 96.3802H448.322V101.974H416.231L419.175 83.5731L416.231 65.1721H448.077V70.766H419.764L422.855 67.1349L425.456 83.5731Z" fill="#F7AAFC"/>
<path d="M176.922 102.661C172.734 102.661 169.054 101.86 165.881 100.257C162.708 98.6538 160.238 96.4293 158.472 93.5833C156.705 90.7045 155.822 87.3678 155.822 83.5731C155.822 79.7784 156.705 76.4581 158.472 73.6121C160.238 70.7333 162.708 68.4925 165.881 66.8896C169.054 65.2866 172.734 64.4852 176.922 64.4852C181.109 64.4852 184.789 65.2866 187.962 66.8896C191.135 68.4925 193.605 70.7333 195.372 73.6121C197.138 76.4581 198.021 79.7784 198.021 83.5731C198.021 87.3678 197.138 90.7045 195.372 93.5833C193.605 96.4293 191.135 98.6538 187.962 100.257C184.789 101.86 181.109 102.661 176.922 102.661ZM202.057 90.0012H208.632C208.828 91.4733 209.434 92.7655 210.448 93.8777C211.495 94.9899 212.869 95.8568 214.57 96.4784C216.271 97.0672 218.233 97.3616 220.458 97.3616C223.762 97.3616 226.379 96.8546 228.309 95.8405C230.239 94.7936 231.204 93.387 231.204 91.6205C231.204 90.1811 230.648 89.1016 229.536 88.3819C228.423 87.6622 226.412 87.1225 223.5 86.7626L215.551 85.7322C211.102 85.1434 207.863 84.0475 205.835 82.4445C203.84 80.8089 202.842 78.5026 202.842 75.5258C202.842 73.2686 203.513 71.3222 204.854 69.6865C206.228 68.0182 208.158 66.7424 210.644 65.8591C213.13 64.9431 216.042 64.4852 219.378 64.4852C222.682 64.4852 225.61 64.9759 228.162 65.9573C230.713 66.9386 232.742 68.3126 234.246 70.0791C235.784 71.8129 236.618 73.8574 236.749 76.2127H230.174C230.01 74.9042 229.454 73.7756 228.505 72.827C227.589 71.8783 226.346 71.1422 224.776 70.6188C223.206 70.0627 221.358 69.7847 219.231 69.7847C216.222 69.7847 213.817 70.2754 212.018 71.2567C210.219 72.2381 209.319 73.5794 209.319 75.2804C209.319 76.5889 209.843 77.603 210.889 78.3227C211.969 79.0097 213.834 79.5331 216.483 79.8929L224.531 81.0215C227.835 81.4795 230.435 82.1011 232.333 82.8862C234.263 83.6386 235.637 84.669 236.455 85.9775C237.272 87.2533 237.681 88.9053 237.681 90.9335C237.681 93.2889 236.962 95.3498 235.522 97.1163C234.083 98.8828 232.055 100.257 229.438 101.238C226.853 102.187 223.827 102.661 220.36 102.661C216.827 102.661 213.703 102.138 210.988 101.091C208.305 100.011 206.179 98.5229 204.609 96.6256C203.038 94.7282 202.188 92.5201 202.057 90.0012ZM266.03 83.7203L266.668 82.2973C269.58 82.33 271.951 82.7717 273.783 83.6222C275.648 84.4727 277.005 85.6177 277.856 87.0571C278.739 88.4964 279.181 90.1157 279.181 91.9149C279.181 93.8777 278.706 95.6115 277.758 97.1163C276.842 98.6211 275.484 99.8151 273.685 100.698C271.886 101.549 269.645 101.974 266.963 101.974H242.428L245.323 83.0824L242.428 65.1721H266.079C269.481 65.1721 272.098 65.9736 273.93 67.5765C275.795 69.1468 276.727 71.3222 276.727 74.1028C276.727 75.5748 276.367 77.0142 275.648 78.4209C274.961 79.7948 273.832 80.9725 272.262 81.9538C270.725 82.9025 268.647 83.4914 266.03 83.7203ZM248.954 100.159L246.452 96.7728H266.226C268.255 96.7728 269.825 96.3148 270.937 95.3988C272.082 94.4502 272.655 93.1089 272.655 91.3752C272.655 89.5432 271.984 88.1202 270.643 87.1061C269.334 86.092 267.388 85.585 264.803 85.585H248.856V80.5799H264.166C265.899 80.5799 267.339 80.1056 268.484 79.1569C269.629 78.1755 270.201 76.7852 270.201 74.986C270.201 73.6448 269.727 72.5489 268.778 71.6984C267.829 70.8151 266.455 70.3735 264.656 70.3735H246.452L248.954 66.9877L251.555 83.0824L248.954 100.159ZM304.387 102.661C300.2 102.661 296.519 101.86 293.346 100.257C290.173 98.6538 287.703 96.4293 285.937 93.5833C284.17 90.7045 283.287 87.3678 283.287 83.5731C283.287 79.7784 284.17 76.4581 285.937 73.6121C287.703 70.7333 290.173 68.4925 293.346 66.8896C296.519 65.2866 300.2 64.4852 304.387 64.4852C308.574 64.4852 312.254 65.2866 315.427 66.8896C318.601 68.4925 321.07 70.7333 322.837 73.6121C324.603 76.4581 325.487 79.7784 325.487 83.5731C325.487 87.3678 324.603 90.7045 322.837 93.5833C321.07 96.4293 318.601 98.6538 315.427 100.257C312.254 101.86 308.574 102.661 304.387 102.661ZM336.294 81.7576H351.26C353.419 81.7576 355.12 81.2669 356.363 80.2855C357.639 79.3041 358.277 77.9629 358.277 76.2618C358.277 74.528 357.639 73.1868 356.363 72.2381C355.12 71.2567 353.419 70.766 351.26 70.766H335.361L338.257 67.1349V101.974H331.779V65.1721H351.849C354.433 65.1721 356.69 65.6465 358.62 66.5952C360.583 67.5111 362.104 68.8033 363.184 70.4716C364.296 72.1073 364.852 74.0373 364.852 76.2618C364.852 78.4209 364.296 80.3346 363.184 82.0029C362.104 83.6386 360.583 84.9307 358.62 85.8794C356.69 86.7954 354.433 87.2533 351.849 87.2533H336.294V81.7576ZM343.556 84.7508H351.162L365.784 101.974H358.031L343.556 84.7508ZM405.655 98.0486L403.006 98.343V65.1721H409.286V101.974H401.043L375.232 68.8033L377.833 68.5089V101.974H371.552V65.1721H379.992L405.655 98.0486ZM446.899 80.8743V86.2719H421.187V80.8743H446.899ZM425.456 83.5731L422.855 100.011L419.764 96.3802H448.322V101.974H416.231L419.175 83.5731L416.231 65.1721H448.077V70.766H419.764L422.855 67.1349L425.456 83.5731Z" stroke="#29222A" stroke-width="2" mask="url(#path-1-outside-1_2071_71)"/>
<path d="M167.63 88.6761C172.295 86.0434 172.295 80.9299 167.63 78.2971C172.295 79.8416 173.178 78.9587 171.631 74.2956C174.264 78.9607 179.378 78.9607 182.01 74.2956C180.466 78.9607 181.349 79.8436 186.014 78.2971C181.349 80.9299 181.349 86.0434 186.014 88.6761C181.349 87.1316 180.466 88.0145 182.01 92.6777C179.378 88.0125 174.264 88.0125 171.631 92.6777C173.176 88.0125 172.293 87.1297 167.63 88.6761Z" fill="#29222A"/>
<path d="M163.822 83.4852C170.419 83.4852 176.822 77.0819 176.822 70.4852C176.822 77.0819 183.225 83.4852 189.822 83.4852C183.225 83.4852 176.822 89.8884 176.822 96.4852C176.822 89.8884 170.419 83.4852 163.822 83.4852Z" fill="#29222A"/>
<path d="M295.63 88.6761C300.295 86.0434 300.295 80.9299 295.63 78.2971C300.295 79.8416 301.178 78.9587 299.631 74.2956C302.264 78.9607 307.378 78.9607 310.01 74.2956C308.466 78.9607 309.349 79.8436 314.014 78.2971C309.349 80.9299 309.349 86.0434 314.014 88.6761C309.349 87.1316 308.466 88.0145 310.01 92.6777C307.378 88.0125 302.264 88.0125 299.631 92.6777C301.176 88.0125 300.293 87.1297 295.63 88.6761Z" fill="#29222A"/>
<path d="M291.822 83.4852C298.419 83.4852 304.822 77.0819 304.822 70.4852C304.822 77.0819 311.225 83.4852 317.822 83.4852C311.225 83.4852 304.822 89.8884 304.822 96.4852C304.822 89.8884 298.419 83.4852 291.822 83.4852Z" fill="#29222A"/>
<mask id="path-6-outside-2_2071_71" maskUnits="userSpaceOnUse" x="3.12183" y="10.511" width="266" height="41" fill="black">
<rect fill="white" x="3.12183" y="10.511" width="266" height="41"/>
<path d="M38.225 45.0745L35.5752 45.3689V12.198H41.8561V49H33.6125L7.80203 15.8291L10.4027 15.5347V49H4.12183V12.198H12.5617L38.225 45.0745ZM50.0764 12.198H56.5535V49H50.0764V12.198ZM103.601 34.4264C103.274 37.436 102.211 40.1021 100.412 42.4247C98.6454 44.7146 96.3228 46.4975 93.4441 47.7733C90.5653 49.0491 87.2777 49.687 83.5811 49.687C79.4593 49.687 75.8445 48.8855 72.7368 47.2826C69.6291 45.6796 67.2083 43.4552 65.4746 40.6091C63.7408 37.7304 62.8739 34.3937 62.8739 30.599C62.8739 26.8043 63.7408 23.484 65.4746 20.6379C67.2083 17.7592 69.6291 15.5184 72.7368 13.9154C75.8445 12.3125 79.4593 11.511 83.5811 11.511C87.2777 11.511 90.5653 12.1489 93.4441 13.4248C96.3228 14.7006 98.6454 16.4834 100.412 18.7733C102.211 21.0632 103.274 23.7293 103.601 26.7716H97.0752C96.7153 24.8088 95.9302 23.1241 94.7199 21.7175C93.5422 20.3108 92.0047 19.2313 90.1073 18.4789C88.21 17.6938 86.0182 17.3012 83.5321 17.3012C80.6533 17.3012 78.1508 17.841 76.0245 18.9205C73.9308 20 72.3115 21.5375 71.1666 23.533C70.0216 25.5285 69.4492 27.8838 69.4492 30.599C69.4492 33.3142 70.0216 35.6695 71.1666 37.665C72.3115 39.6605 73.9308 41.198 76.0245 42.2775C78.1508 43.357 80.6533 43.8968 83.5321 43.8968C86.0182 43.8968 88.21 43.5206 90.1073 42.7682C92.0047 42.0158 93.5422 40.9363 94.7199 39.5296C95.9302 38.0903 96.7153 36.3892 97.0752 34.4264H103.601ZM128.681 49.687C124.494 49.687 120.814 48.8855 117.641 47.2826C114.467 45.6796 111.998 43.4552 110.231 40.6091C108.465 37.7304 107.581 34.3937 107.581 30.599C107.581 26.8043 108.465 23.484 110.231 20.6379C111.998 17.7592 114.467 15.5184 117.641 13.9154C120.814 12.3125 124.494 11.511 128.681 11.511C132.868 11.511 136.549 12.3125 139.722 13.9154C142.895 15.5184 145.365 17.7592 147.131 20.6379C148.898 23.484 149.781 26.8043 149.781 30.599C149.781 34.3937 148.898 37.7304 147.131 40.6091C145.365 43.4552 142.895 45.6796 139.722 47.2826C136.549 48.8855 132.868 49.687 128.681 49.687ZM128.681 43.8968C131.658 43.8968 134.226 43.357 136.385 42.2775C138.544 41.198 140.212 39.6605 141.39 37.665C142.601 35.6695 143.206 33.3142 143.206 30.599C143.206 27.8838 142.601 25.5285 141.39 23.533C140.212 21.5375 138.544 20 136.385 18.9205C134.226 17.841 131.658 17.3012 128.681 17.3012C125.737 17.3012 123.169 17.841 120.977 18.9205C118.818 20 117.134 21.5375 115.923 23.533C114.746 25.5285 114.157 27.8838 114.157 30.599C114.157 33.3142 114.746 35.6695 115.923 37.665C117.134 39.6605 118.818 41.198 120.977 42.2775C123.169 43.357 125.737 43.8968 128.681 43.8968ZM162.551 12.198V46.1049L159.656 43.308H187.38V49H156.074V12.198H162.551ZM197.208 40.5601V35.2115H222.92V40.5601H197.208ZM214.284 12.198L231.949 49H225.03L208.984 14.6515H211.487L195.441 49H188.522L206.187 12.198H214.284ZM232.404 37.0271H238.979C239.176 38.4992 239.781 39.7913 240.795 40.9036C241.842 42.0158 243.216 42.8827 244.917 43.5042C246.618 44.0931 248.581 44.3875 250.805 44.3875C254.109 44.3875 256.726 43.8804 258.656 42.8663C260.586 41.8195 261.551 40.4129 261.551 38.6464C261.551 37.207 260.995 36.1275 259.883 35.4078C258.771 34.6881 256.759 34.1484 253.847 33.7885L245.898 32.7581C241.449 32.1692 238.211 31.0733 236.182 29.4704C234.187 27.8348 233.189 25.5285 233.189 22.5516C233.189 20.2945 233.86 18.348 235.201 16.7124C236.575 15.044 238.505 13.7682 240.991 12.885C243.477 11.969 246.389 11.511 249.726 11.511C253.03 11.511 255.957 12.0017 258.509 12.9831C261.061 13.9645 263.089 15.3385 264.594 17.1049C266.131 18.8387 266.965 20.8833 267.096 23.2386H260.521C260.357 21.9301 259.801 20.8015 258.852 19.8528C257.937 18.9042 256.693 18.1681 255.123 17.6447C253.553 17.0886 251.705 16.8105 249.578 16.8105C246.569 16.8105 244.164 17.3012 242.365 18.2826C240.566 19.264 239.666 20.6052 239.666 22.3063C239.666 23.6148 240.19 24.6289 241.237 25.3486C242.316 26.0356 244.181 26.559 246.83 26.9188L254.878 28.0474C258.182 28.5054 260.783 29.1269 262.68 29.912C264.61 30.6644 265.984 31.6949 266.802 33.0034C267.62 34.2792 268.028 35.9312 268.028 37.9594C268.028 40.3147 267.309 42.3756 265.869 44.1421C264.43 45.9086 262.402 47.2826 259.785 48.264C257.2 49.2126 254.175 49.687 250.707 49.687C247.174 49.687 244.05 49.1636 241.335 48.1168C238.652 47.0372 236.526 45.5488 234.956 43.6514C233.385 41.7541 232.535 39.546 232.404 37.0271Z"/>
</mask>
<path d="M38.225 45.0745L35.5752 45.3689V12.198H41.8561V49H33.6125L7.80203 15.8291L10.4027 15.5347V49H4.12183V12.198H12.5617L38.225 45.0745ZM50.0764 12.198H56.5535V49H50.0764V12.198ZM103.601 34.4264C103.274 37.436 102.211 40.1021 100.412 42.4247C98.6454 44.7146 96.3228 46.4975 93.4441 47.7733C90.5653 49.0491 87.2777 49.687 83.5811 49.687C79.4593 49.687 75.8445 48.8855 72.7368 47.2826C69.6291 45.6796 67.2083 43.4552 65.4746 40.6091C63.7408 37.7304 62.8739 34.3937 62.8739 30.599C62.8739 26.8043 63.7408 23.484 65.4746 20.6379C67.2083 17.7592 69.6291 15.5184 72.7368 13.9154C75.8445 12.3125 79.4593 11.511 83.5811 11.511C87.2777 11.511 90.5653 12.1489 93.4441 13.4248C96.3228 14.7006 98.6454 16.4834 100.412 18.7733C102.211 21.0632 103.274 23.7293 103.601 26.7716H97.0752C96.7153 24.8088 95.9302 23.1241 94.7199 21.7175C93.5422 20.3108 92.0047 19.2313 90.1073 18.4789C88.21 17.6938 86.0182 17.3012 83.5321 17.3012C80.6533 17.3012 78.1508 17.841 76.0245 18.9205C73.9308 20 72.3115 21.5375 71.1666 23.533C70.0216 25.5285 69.4492 27.8838 69.4492 30.599C69.4492 33.3142 70.0216 35.6695 71.1666 37.665C72.3115 39.6605 73.9308 41.198 76.0245 42.2775C78.1508 43.357 80.6533 43.8968 83.5321 43.8968C86.0182 43.8968 88.21 43.5206 90.1073 42.7682C92.0047 42.0158 93.5422 40.9363 94.7199 39.5296C95.9302 38.0903 96.7153 36.3892 97.0752 34.4264H103.601ZM128.681 49.687C124.494 49.687 120.814 48.8855 117.641 47.2826C114.467 45.6796 111.998 43.4552 110.231 40.6091C108.465 37.7304 107.581 34.3937 107.581 30.599C107.581 26.8043 108.465 23.484 110.231 20.6379C111.998 17.7592 114.467 15.5184 117.641 13.9154C120.814 12.3125 124.494 11.511 128.681 11.511C132.868 11.511 136.549 12.3125 139.722 13.9154C142.895 15.5184 145.365 17.7592 147.131 20.6379C148.898 23.484 149.781 26.8043 149.781 30.599C149.781 34.3937 148.898 37.7304 147.131 40.6091C145.365 43.4552 142.895 45.6796 139.722 47.2826C136.549 48.8855 132.868 49.687 128.681 49.687ZM128.681 43.8968C131.658 43.8968 134.226 43.357 136.385 42.2775C138.544 41.198 140.212 39.6605 141.39 37.665C142.601 35.6695 143.206 33.3142 143.206 30.599C143.206 27.8838 142.601 25.5285 141.39 23.533C140.212 21.5375 138.544 20 136.385 18.9205C134.226 17.841 131.658 17.3012 128.681 17.3012C125.737 17.3012 123.169 17.841 120.977 18.9205C118.818 20 117.134 21.5375 115.923 23.533C114.746 25.5285 114.157 27.8838 114.157 30.599C114.157 33.3142 114.746 35.6695 115.923 37.665C117.134 39.6605 118.818 41.198 120.977 42.2775C123.169 43.357 125.737 43.8968 128.681 43.8968ZM162.551 12.198V46.1049L159.656 43.308H187.38V49H156.074V12.198H162.551ZM197.208 40.5601V35.2115H222.92V40.5601H197.208ZM214.284 12.198L231.949 49H225.03L208.984 14.6515H211.487L195.441 49H188.522L206.187 12.198H214.284ZM232.404 37.0271H238.979C239.176 38.4992 239.781 39.7913 240.795 40.9036C241.842 42.0158 243.216 42.8827 244.917 43.5042C246.618 44.0931 248.581 44.3875 250.805 44.3875C254.109 44.3875 256.726 43.8804 258.656 42.8663C260.586 41.8195 261.551 40.4129 261.551 38.6464C261.551 37.207 260.995 36.1275 259.883 35.4078C258.771 34.6881 256.759 34.1484 253.847 33.7885L245.898 32.7581C241.449 32.1692 238.211 31.0733 236.182 29.4704C234.187 27.8348 233.189 25.5285 233.189 22.5516C233.189 20.2945 233.86 18.348 235.201 16.7124C236.575 15.044 238.505 13.7682 240.991 12.885C243.477 11.969 246.389 11.511 249.726 11.511C253.03 11.511 255.957 12.0017 258.509 12.9831C261.061 13.9645 263.089 15.3385 264.594 17.1049C266.131 18.8387 266.965 20.8833 267.096 23.2386H260.521C260.357 21.9301 259.801 20.8015 258.852 19.8528C257.937 18.9042 256.693 18.1681 255.123 17.6447C253.553 17.0886 251.705 16.8105 249.578 16.8105C246.569 16.8105 244.164 17.3012 242.365 18.2826C240.566 19.264 239.666 20.6052 239.666 22.3063C239.666 23.6148 240.19 24.6289 241.237 25.3486C242.316 26.0356 244.181 26.559 246.83 26.9188L254.878 28.0474C258.182 28.5054 260.783 29.1269 262.68 29.912C264.61 30.6644 265.984 31.6949 266.802 33.0034C267.62 34.2792 268.028 35.9312 268.028 37.9594C268.028 40.3147 267.309 42.3756 265.869 44.1421C264.43 45.9086 262.402 47.2826 259.785 48.264C257.2 49.2126 254.175 49.687 250.707 49.687C247.174 49.687 244.05 49.1636 241.335 48.1168C238.652 47.0372 236.526 45.5488 234.956 43.6514C233.385 41.7541 232.535 39.546 232.404 37.0271Z" fill="#C0C0F7"/>
<path d="M38.225 45.0745L35.5752 45.3689V12.198H41.8561V49H33.6125L7.80203 15.8291L10.4027 15.5347V49H4.12183V12.198H12.5617L38.225 45.0745ZM50.0764 12.198H56.5535V49H50.0764V12.198ZM103.601 34.4264C103.274 37.436 102.211 40.1021 100.412 42.4247C98.6454 44.7146 96.3228 46.4975 93.4441 47.7733C90.5653 49.0491 87.2777 49.687 83.5811 49.687C79.4593 49.687 75.8445 48.8855 72.7368 47.2826C69.6291 45.6796 67.2083 43.4552 65.4746 40.6091C63.7408 37.7304 62.8739 34.3937 62.8739 30.599C62.8739 26.8043 63.7408 23.484 65.4746 20.6379C67.2083 17.7592 69.6291 15.5184 72.7368 13.9154C75.8445 12.3125 79.4593 11.511 83.5811 11.511C87.2777 11.511 90.5653 12.1489 93.4441 13.4248C96.3228 14.7006 98.6454 16.4834 100.412 18.7733C102.211 21.0632 103.274 23.7293 103.601 26.7716H97.0752C96.7153 24.8088 95.9302 23.1241 94.7199 21.7175C93.5422 20.3108 92.0047 19.2313 90.1073 18.4789C88.21 17.6938 86.0182 17.3012 83.5321 17.3012C80.6533 17.3012 78.1508 17.841 76.0245 18.9205C73.9308 20 72.3115 21.5375 71.1666 23.533C70.0216 25.5285 69.4492 27.8838 69.4492 30.599C69.4492 33.3142 70.0216 35.6695 71.1666 37.665C72.3115 39.6605 73.9308 41.198 76.0245 42.2775C78.1508 43.357 80.6533 43.8968 83.5321 43.8968C86.0182 43.8968 88.21 43.5206 90.1073 42.7682C92.0047 42.0158 93.5422 40.9363 94.7199 39.5296C95.9302 38.0903 96.7153 36.3892 97.0752 34.4264H103.601ZM128.681 49.687C124.494 49.687 120.814 48.8855 117.641 47.2826C114.467 45.6796 111.998 43.4552 110.231 40.6091C108.465 37.7304 107.581 34.3937 107.581 30.599C107.581 26.8043 108.465 23.484 110.231 20.6379C111.998 17.7592 114.467 15.5184 117.641 13.9154C120.814 12.3125 124.494 11.511 128.681 11.511C132.868 11.511 136.549 12.3125 139.722 13.9154C142.895 15.5184 145.365 17.7592 147.131 20.6379C148.898 23.484 149.781 26.8043 149.781 30.599C149.781 34.3937 148.898 37.7304 147.131 40.6091C145.365 43.4552 142.895 45.6796 139.722 47.2826C136.549 48.8855 132.868 49.687 128.681 49.687ZM128.681 43.8968C131.658 43.8968 134.226 43.357 136.385 42.2775C138.544 41.198 140.212 39.6605 141.39 37.665C142.601 35.6695 143.206 33.3142 143.206 30.599C143.206 27.8838 142.601 25.5285 141.39 23.533C140.212 21.5375 138.544 20 136.385 18.9205C134.226 17.841 131.658 17.3012 128.681 17.3012C125.737 17.3012 123.169 17.841 120.977 18.9205C118.818 20 117.134 21.5375 115.923 23.533C114.746 25.5285 114.157 27.8838 114.157 30.599C114.157 33.3142 114.746 35.6695 115.923 37.665C117.134 39.6605 118.818 41.198 120.977 42.2775C123.169 43.357 125.737 43.8968 128.681 43.8968ZM162.551 12.198V46.1049L159.656 43.308H187.38V49H156.074V12.198H162.551ZM197.208 40.5601V35.2115H222.92V40.5601H197.208ZM214.284 12.198L231.949 49H225.03L208.984 14.6515H211.487L195.441 49H188.522L206.187 12.198H214.284ZM232.404 37.0271H238.979C239.176 38.4992 239.781 39.7913 240.795 40.9036C241.842 42.0158 243.216 42.8827 244.917 43.5042C246.618 44.0931 248.581 44.3875 250.805 44.3875C254.109 44.3875 256.726 43.8804 258.656 42.8663C260.586 41.8195 261.551 40.4129 261.551 38.6464C261.551 37.207 260.995 36.1275 259.883 35.4078C258.771 34.6881 256.759 34.1484 253.847 33.7885L245.898 32.7581C241.449 32.1692 238.211 31.0733 236.182 29.4704C234.187 27.8348 233.189 25.5285 233.189 22.5516C233.189 20.2945 233.86 18.348 235.201 16.7124C236.575 15.044 238.505 13.7682 240.991 12.885C243.477 11.969 246.389 11.511 249.726 11.511C253.03 11.511 255.957 12.0017 258.509 12.9831C261.061 13.9645 263.089 15.3385 264.594 17.1049C266.131 18.8387 266.965 20.8833 267.096 23.2386H260.521C260.357 21.9301 259.801 20.8015 258.852 19.8528C257.937 18.9042 256.693 18.1681 255.123 17.6447C253.553 17.0886 251.705 16.8105 249.578 16.8105C246.569 16.8105 244.164 17.3012 242.365 18.2826C240.566 19.264 239.666 20.6052 239.666 22.3063C239.666 23.6148 240.19 24.6289 241.237 25.3486C242.316 26.0356 244.181 26.559 246.83 26.9188L254.878 28.0474C258.182 28.5054 260.783 29.1269 262.68 29.912C264.61 30.6644 265.984 31.6949 266.802 33.0034C267.62 34.2792 268.028 35.9312 268.028 37.9594C268.028 40.3147 267.309 42.3756 265.869 44.1421C264.43 45.9086 262.402 47.2826 259.785 48.264C257.2 49.2126 254.175 49.687 250.707 49.687C247.174 49.687 244.05 49.1636 241.335 48.1168C238.652 47.0372 236.526 45.5488 234.956 43.6514C233.385 41.7541 232.535 39.546 232.404 37.0271Z" stroke="#29222A" stroke-width="2" mask="url(#path-6-outside-2_2071_71)"/>
<mask id="mask0_2071_71" style="mask-type:luminance" maskUnits="userSpaceOnUse" x="116" y="18" width="25" height="25">
<path d="M140.822 18.4852H116.822V42.4852H140.822V18.4852Z" fill="white"/>
</mask>
<g mask="url(#mask0_2071_71)">
<path d="M117.822 30.4852C117.822 30.4852 121.822 22.4852 128.822 22.4852C135.822 22.4852 139.822 30.4852 139.822 30.4852C139.822 30.4852 135.822 38.4852 128.822 38.4852C121.822 38.4852 117.822 30.4852 117.822 30.4852Z" stroke="#F7AAFC" stroke-width="2" stroke-linecap="round" stroke-linejoin="round"/>
<path d="M128.822 33.4852C130.479 33.4852 131.822 32.142 131.822 30.4852C131.822 28.8283 130.479 27.4852 128.822 27.4852C127.165 27.4852 125.822 28.8283 125.822 30.4852C125.822 32.142 127.165 33.4852 128.822 33.4852Z" stroke="#F7AAFC" stroke-width="2" stroke-linecap="round" stroke-linejoin="round"/>
</g>
</svg>
