<svg width="193" height="45" viewBox="0 0 193 45" fill="none" xmlns="http://www.w3.org/2000/svg">
<g clip-path="url(#clip0_20_159)">
<path d="M34.1032 36.5634L31.4534 36.8578V3.68697H37.7343V40.489H29.4907L3.6802 7.3181L6.28087 7.02369V40.489H0V3.68697H8.43992L34.1032 36.5634ZM45.9546 3.68697H52.4318V40.489H45.9546V3.68697ZM99.4794 25.9154C99.1523 28.925 98.0891 31.5911 96.2899 33.9137C94.5234 36.2036 92.2008 37.9864 89.3221 39.2622C86.4434 40.538 83.1557 41.1759 79.4592 41.1759C75.3373 41.1759 71.7226 40.3745 68.6148 38.7715C65.5071 37.1686 63.0864 34.9441 61.3526 32.0981C59.6188 29.2194 58.7519 25.8827 58.7519 22.088C58.7519 18.2933 59.6188 14.9729 61.3526 12.1269C63.0864 9.24816 65.5071 7.00733 68.6148 5.4044C71.7226 3.80147 75.3373 3 79.4592 3C83.1557 3 86.4434 3.6379 89.3221 4.91371C92.2008 6.18951 94.5234 7.97236 96.2899 10.2623C98.0891 12.5522 99.1523 15.2183 99.4794 18.2606H92.9532C92.5934 16.2978 91.8083 14.6131 90.5979 13.2064C89.4202 11.7998 87.8827 10.7202 85.9854 9.96785C84.088 9.18274 81.8963 8.79018 79.4101 8.79018C76.5314 8.79018 74.0288 9.32994 71.9025 10.4095C69.8089 11.489 68.1896 13.0265 67.0446 15.022C65.8997 17.0175 65.3272 19.3728 65.3272 22.088C65.3272 24.8031 65.8997 27.1585 67.0446 29.1539C68.1896 31.1494 69.8089 32.6869 71.9025 33.7665C74.0288 34.846 76.5314 35.3857 79.4101 35.3857C81.8963 35.3857 84.088 35.0095 85.9854 34.2572C87.8827 33.5048 89.4202 32.4252 90.5979 31.0186C91.8083 29.5792 92.5934 27.8781 92.9532 25.9154H99.4794ZM124.56 41.1759C120.372 41.1759 116.692 40.3745 113.519 38.7715C110.346 37.1686 107.876 34.9441 106.11 32.0981C104.343 29.2194 103.46 25.8827 103.46 22.088C103.46 18.2933 104.343 14.9729 106.11 12.1269C107.876 9.24816 110.346 7.00733 113.519 5.4044C116.692 3.80147 120.372 3 124.56 3C128.747 3 132.427 3.80147 135.6 5.4044C138.773 7.00733 141.243 9.24816 143.01 12.1269C144.776 14.9729 145.659 18.2933 145.659 22.088C145.659 25.8827 144.776 29.2194 143.01 32.0981C141.243 34.9441 138.773 37.1686 135.6 38.7715C132.427 40.3745 128.747 41.1759 124.56 41.1759ZM124.56 35.3857C127.536 35.3857 130.104 34.846 132.263 33.7665C134.422 32.6869 136.091 31.1494 137.269 29.1539C138.479 27.1585 139.084 24.8031 139.084 22.088C139.084 19.3728 138.479 17.0175 137.269 15.022C136.091 13.0265 134.422 11.489 132.263 10.4095C130.104 9.32994 127.536 8.79018 124.56 8.79018C121.615 8.79018 119.047 9.32994 116.856 10.4095C114.697 11.489 113.012 13.0265 111.802 15.022C110.624 17.0175 110.035 19.3728 110.035 22.088C110.035 24.8031 110.624 27.1585 111.802 29.1539C113.012 31.1494 114.697 32.6869 116.856 33.7665C119.047 34.846 121.615 35.3857 124.56 35.3857ZM171.089 41.1759C166.902 41.1759 163.222 40.3745 160.049 38.7715C156.875 37.1686 154.406 34.9441 152.639 32.0981C150.873 29.2194 149.989 25.8827 149.989 22.088C149.989 18.2933 150.873 14.9729 152.639 12.1269C154.406 9.24816 156.875 7.00733 160.049 5.4044C163.222 3.80147 166.902 3 171.089 3C175.276 3 178.957 3.80147 182.13 5.4044C185.303 7.00733 187.773 9.24816 189.539 12.1269C191.306 14.9729 192.189 18.2933 192.189 22.088C192.189 25.8827 191.306 29.2194 189.539 32.0981C187.773 34.9441 185.303 37.1686 182.13 38.7715C178.957 40.3745 175.276 41.1759 171.089 41.1759Z" fill="#29222A"/>
<path d="M161.808 27.1909C166.473 24.5581 166.473 19.4447 161.808 16.8119C166.473 18.3564 167.356 17.4735 165.81 12.8103C168.442 17.4755 173.556 17.4755 176.189 12.8103C174.644 17.4755 175.527 18.3584 180.192 16.8119C175.527 19.4447 175.527 24.5581 180.192 27.1909C175.527 25.6464 174.644 26.5293 176.189 31.1924C173.556 26.5273 168.442 26.5273 165.81 31.1924C167.354 26.5273 166.471 25.6444 161.808 27.1909Z" fill="#F7AAFC"/>
<path d="M158 22C164.597 22 171 15.5968 171 9C171 15.5968 177.403 22 184 22C177.403 22 171 28.4032 171 35C171 28.4032 164.597 22 158 22Z" fill="#F7AAFC"/>
<path d="M113.042 22C113.042 22 117.208 14 124.5 14C131.792 14 135.958 22 135.958 22C135.958 22 131.792 30 124.5 30C117.208 30 113.042 22 113.042 22Z" stroke="#29222A" stroke-width="2" stroke-linecap="round" stroke-linejoin="round"/>
<path d="M124.5 25C126.226 25 127.625 23.6569 127.625 22C127.625 20.3431 126.226 19 124.5 19C122.774 19 121.375 20.3431 121.375 22C121.375 23.6569 122.774 25 124.5 25Z" stroke="#29222A" stroke-width="2" stroke-linecap="round" stroke-linejoin="round"/>
</g>
<defs>
<clipPath id="clip0_20_159">
<rect width="192.188" height="44.9802" fill="white"/>
</clipPath>
</defs>
</svg>
