<svg width="70" height="70" viewBox="0 0 70 70" fill="none" xmlns="http://www.w3.org/2000/svg">
<path d="M69.4988 57.5466H53.1713C52.8979 57.5466 52.6813 57.7172 52.6813 58.0475V62.4684C52.6813 62.7419 52.852 62.9584 53.1823 62.9584H69.4966C69.781 62.9584 69.9976 62.8337 69.9976 62.4794V58.0584C69.9976 57.7631 69.827 57.5794 69.4966 57.5794V57.5334L69.4988 57.5466ZM48.022 7.18812C48.0679 7.29093 48.1007 7.38281 48.1598 7.54031V62.3416C48.1598 62.5231 48.092 62.6259 48.046 62.6719C47.9541 62.7856 47.8076 62.8534 47.6588 62.8534H0.446016C0.332266 62.8534 0.229453 62.8534 0.161641 62.7856C0.0588281 62.6828 0.00195312 62.5472 0.00195312 62.3984V7.48343C0.00195312 7.25593 0.115703 7.09624 0.286328 7.03937H47.6588C47.7726 7.03937 47.9323 7.09624 47.9891 7.14218V7.18812H48.022ZM5.29789 57.0916C5.29789 57.3081 5.41164 57.4897 5.58227 57.5356H42.4613C42.621 57.4897 42.7348 57.3191 42.7348 57.0916V12.8406C42.7348 12.635 42.621 12.4534 42.4504 12.4075H5.58227C5.42258 12.4644 5.30883 12.6241 5.30883 12.8406L5.29789 57.0916ZM20.3938 32.6637C22.286 32.6637 23.3557 33.1887 24.4604 34.475C24.631 34.6916 24.9045 34.7484 25.132 34.5778L28.1507 31.8894C28.3673 31.7647 28.3213 31.4103 28.2076 31.2397C26.3504 29.0062 23.6729 27.6172 20.221 27.6172C15.5835 27.6172 12.0748 29.9294 10.7185 34.0441C10.2395 35.49 10.0229 37.3362 10.0229 39.8212C10.0229 42.3172 10.2395 44.1503 10.7645 45.5984C12.1207 49.7569 15.6185 52.0253 20.256 52.0253C23.7648 52.0253 26.4313 50.6231 28.2645 48.4816C28.4023 48.265 28.446 48.0025 28.2185 47.8209L25.1998 45.1544C24.9832 45.0166 24.7207 45.0166 24.5391 45.2331C23.4104 46.5434 22.227 47.2391 20.2998 47.2391C18.2479 47.2391 16.6773 46.2372 16.0166 44.2203C15.6185 43.0916 15.5266 41.6916 15.5266 39.9022C15.5266 38.1019 15.6645 36.7806 16.0626 35.6059C16.7582 33.6919 18.296 32.6659 20.3916 32.6659L20.3938 32.6637Z" fill="black"/>
</svg>
