<svg width="64" height="58" viewBox="0 0 64 58" fill="none" xmlns="http://www.w3.org/2000/svg">
<g opacity="0.8" clip-path="url(#clip0_79_52)">
<g clip-path="url(#clip1_79_52)">
<path d="M974.769 -665.154H-98.4615V171.769H974.769V-665.154Z" fill="white"/>
<path d="M64 -0.538452H0V6.00924H64V-0.538452Z" fill="#DC4437"/>
<path d="M64 12.6062H0V19.1539H64V12.6062Z" fill="#DC4437"/>
<path d="M64 38.8462H0V45.3939H64V38.8462Z" fill="#DC4437"/>
<path d="M64 51.9907H0V58.5384H64V51.9907Z" fill="#DC4437"/>
<path d="M64 25.7015H0V32.2492H64V25.7015Z" fill="#DC4437"/>
<path d="M64 6.00928H0V12.557H64V6.00928Z" fill="white"/>
<path d="M64 19.1538H0V25.7015H64V19.1538Z" fill="white"/>
<path d="M64 45.3938H0V51.9415H64V45.3938Z" fill="white"/>
<path d="M64 32.2985H0V38.8462H64V32.2985Z" fill="white"/>
<path d="M34.4615 -0.538452H0V32.2985H34.4615V-0.538452Z" fill="#2A66B7"/>
<path d="M6.64617 1.43079L7.77847 3.84309L10.3385 4.23694L8.4677 6.15694L8.91078 8.8154L6.64617 7.5354L4.38155 8.8154L4.82463 6.15694L2.95386 4.23694L5.51386 3.84309L6.64617 1.43079Z" fill="white"/>
<path d="M16.7385 1.43079L17.8708 3.84309L20.4308 4.23694L18.6092 6.15694L19.0031 8.8154L16.7385 7.5354L14.4738 8.8154L14.8677 6.15694L13.0461 4.23694L15.6061 3.84309L16.7385 1.43079Z" fill="white"/>
<path d="M26.8308 1.43079L27.9631 3.84309L30.5231 4.23694L28.6523 6.15694L29.0954 8.8154L26.8308 7.5354L24.5662 8.8154L25.0093 6.15694L23.1385 4.23694L25.6985 3.84309L26.8308 1.43079Z" fill="white"/>
<path d="M11.8154 11.277L12.9477 13.6893L15.5077 14.0831L13.6861 16.0031L14.08 18.6616L11.8154 17.3816L9.55074 18.6616L9.94459 16.0031L8.12305 14.0831L10.683 13.6893L11.8154 11.277Z" fill="white"/>
<path d="M21.9077 11.277L23.04 13.6893L25.6 14.0831L23.7292 16.0031L24.1723 18.6616L21.9077 17.3816L19.6431 18.6616L20.0862 16.0031L18.2154 14.0831L20.7754 13.6893L21.9077 11.277Z" fill="white"/>
<path d="M6.64617 21.7139L7.77847 24.1262L10.3385 24.52L8.4677 26.3908L8.91078 29.0985L6.64617 27.8185L4.38155 29.0985L4.82463 26.3908L2.95386 24.52L5.51386 24.1262L6.64617 21.7139Z" fill="white"/>
<path d="M16.7385 21.7139L17.8708 24.1262L20.4308 24.52L18.6092 26.3908L19.0031 29.0985L16.7385 27.8185L14.4738 29.0985L14.8677 26.3908L13.0461 24.52L15.6061 24.1262L16.7385 21.7139Z" fill="white"/>
<path d="M26.8308 21.7139L27.9631 24.1262L30.5231 24.52L28.6523 26.3908L29.0954 29.0985L26.8308 27.8185L24.5662 29.0985L25.0093 26.3908L23.1385 24.52L25.6985 24.1262L26.8308 21.7139Z" fill="white"/>
</g>
</g>
<defs>
<clipPath id="clip0_79_52">
<rect width="64" height="58" fill="white"/>
</clipPath>
<clipPath id="clip1_79_52">
<rect width="64" height="64" fill="white" transform="translate(0 -3)"/>
</clipPath>
</defs>
</svg>
